<svg width="24" height="24" viewBox="0 0 24 24" fill="none" xmlns="http://www.w3.org/2000/svg">
<g id="Delivery.1" clip-path="url(#clip0_50_12379)">
<g id="Group">
<path id="Vector" d="M2.848 20.875H21.152C21.62 20.875 22 20.495 22 20.027V18.848C22 18.38 21.62 18 21.152 18H2.848C2.38 18 2 18.38 2 18.848V20.027C2 20.495 2.38 20.875 2.848 20.875Z" stroke="#A1A2A6" stroke-width="1.5" stroke-linecap="round" stroke-linejoin="round"/>
<path id="Vector_2" d="M14.0161 18V12C14.0161 11.448 14.4641 11 15.0161 11H20.0001C20.5521 11 21.0001 11.448 21.0001 12V18" stroke="#A1A2A6" stroke-width="1.5" stroke-linecap="round" stroke-linejoin="round"/>
<path id="Vector_3" d="M17 15H18" stroke="#A1A2A6" stroke-width="1.5" stroke-linecap="round" stroke-linejoin="round"/>
<path id="Vector_4" d="M8.5857 5.9732C9.39526 6.78275 9.39526 8.09531 8.5857 8.90486C7.77615 9.71441 6.46359 9.71441 5.65404 8.90486C4.84449 8.0953 4.84449 6.78275 5.65404 5.9732C6.4636 5.16364 7.77615 5.16364 8.5857 5.9732Z" stroke="#A1A2A6" stroke-width="1.5" stroke-linecap="round" stroke-linejoin="round"/>
<path id="Vector_5" d="M3.18311 18L3.84211 14.038C4.00211 13.073 4.83711 12.366 5.81511 12.366H8.44411C9.41411 12.366 10.2441 13.062 10.4131 14.017L11.1201 18" stroke="#A1A2A6" stroke-width="1.5" stroke-linecap="round" stroke-linejoin="round"/>
</g>
</g>
<defs>
<clipPath id="clip0_50_12379">
<rect width="24" height="24" fill="white"/>
</clipPath>
</defs>
</svg>
