<?xml version="1.0" encoding="utf-8"?><svg xmlns="http://www.w3.org/2000/svg" xmlns:xlink="http://www.w3.org/1999/xlink"><symbol fill="none" viewBox="0 0 24 24" id="beware" xmlns="http://www.w3.org/2000/svg"><g stroke="#E30611" stroke-width="1.5" stroke-linecap="round" stroke-linejoin="round" clip-path="url(#aa)"><path d="m7.414 20.414-3.828-3.828A2 2 0 0 1 3 15.172V8.828a2 2 0 0 1 .586-1.414l3.828-3.828A2 2 0 0 1 8.828 3h6.343a2 2 0 0 1 1.414.586l3.828 3.828c.376.375.587.884.587 1.414v6.343a2 2 0 0 1-.586 1.414L16 21H8.828a2 2 0 0 1-1.414-.586ZM9 15l6-6m0 6L9 9"/></g><defs><clipPath id="aa"><path fill="#fff" d="M0 0h24v24H0z"/></clipPath></defs></symbol><symbol fill="none" viewBox="0 0 24 24" id="delivery" xmlns="http://www.w3.org/2000/svg"><g stroke="#A1A2A6" stroke-width="1.5" stroke-linecap="round" stroke-linejoin="round" clip-path="url(#ba)"><path d="M2.848 20.875h18.304c.468 0 .848-.38.848-.848v-1.179a.848.848 0 0 0-.848-.848H2.848a.848.848 0 0 0-.848.848v1.179c0 .468.38.848.848.848ZM14.016 18v-6a1 1 0 0 1 1-1H20a1 1 0 0 1 1 1v6m-4-3h1M8.586 5.973a2.073 2.073 0 1 1-2.932 2.932 2.073 2.073 0 0 1 2.932-2.932ZM3.183 18l.66-3.962a2 2 0 0 1 1.972-1.672h2.63a2 2 0 0 1 1.968 1.651L11.12 18"/></g><defs><clipPath id="ba"><path fill="#fff" d="M0 0h24v24H0z"/></clipPath></defs></symbol><symbol fill="none" viewBox="0 0 24 24" id="done" xmlns="http://www.w3.org/2000/svg"><g stroke="#A1A2A6" stroke-width="1.5" stroke-linecap="round" stroke-linejoin="round" clip-path="url(#ca)"><path d="m8.712 12.566 2.193 2.193 4.787-4.788"/><path d="M19 21H5a2 2 0 0 1-2-2V5a2 2 0 0 1 2-2h14a2 2 0 0 1 2 2v14a2 2 0 0 1-2 2Z"/></g><defs><clipPath id="ca"><path fill="#fff" d="M0 0h24v24H0z"/></clipPath></defs></symbol><symbol fill="none" viewBox="0 0 24 24" id="fast-delivery" xmlns="http://www.w3.org/2000/svg"><g stroke="#A1A2A6" stroke-width="1.5" stroke-linecap="round" stroke-linejoin="round" clip-path="url(#da)"><path d="M3 7H2m2-3H2m15 16H3M17.275 4l-.986 3.287A1.001 1.001 0 0 1 15.33 8h-3.112a1 1 0 0 1-.958-1.287L12.075 4M8 13h2.13"/><path d="M17.438 16H6.85a2.4 2.4 0 0 1-2.299-3.09l2.16-7.2A2.4 2.4 0 0 1 9.01 4H19.6a2.4 2.4 0 0 1 2.298 3.09l-2.16 7.2a2.402 2.402 0 0 1-2.3 1.71Z"/></g><defs><clipPath id="da"><path fill="#fff" d="M0 0h24v24H0z"/></clipPath></defs></symbol><symbol fill="none" viewBox="0 0 24 24" id="marker" xmlns="http://www.w3.org/2000/svg"><g stroke="#A1A2A6" stroke-width="1.447" stroke-linecap="round" stroke-linejoin="round" clip-path="url(#ea)"><path d="M5.127 10.045v-.172a6.873 6.873 0 1 1 13.746 0v.172c0 3.461-4.382 8.671-6.148 10.631a.973.973 0 0 1-1.45 0c-1.766-1.96-6.148-7.17-6.148-10.631Z"/><path d="M10 9.955a2 2 0 1 0 4 0v-.037a2 2 0 1 0-4 0"/></g><defs><clipPath id="ea"><path fill="#fff" d="M0 0h24v24H0z"/></clipPath></defs></symbol><symbol fill="none" viewBox="0 0 24 24" id="settings" xmlns="http://www.w3.org/2000/svg"><g stroke="#A1A2A6" stroke-width="1.5" stroke-linecap="round" stroke-linejoin="round" clip-path="url(#fa)"><path d="m17.196 5 3.464 6a2.001 2.001 0 0 1 0 2l-3.464 6a2 2 0 0 1-1.732 1H8.536a1.999 1.999 0 0 1-1.732-1L3.34 13a2.001 2.001 0 0 1 0-2l3.464-6a2 2 0 0 1 1.732-1h6.929c.714 0 1.374.381 1.731 1Z"/><path d="M14.8 9.2a3.96 3.96 0 1 1-5.6 5.6 3.96 3.96 0 0 1 5.6-5.6Z"/></g><defs><clipPath id="fa"><path fill="#fff" d="M0 0h24v24H0z"/></clipPath></defs></symbol><symbol fill="none" viewBox="0 0 24 24" id="shield" xmlns="http://www.w3.org/2000/svg"><g stroke="#A1A2A6" stroke-width="1.5" stroke-linecap="round" stroke-linejoin="round" clip-path="url(#ga)"><path d="M20 11.182c0 4.541-3.413 8.787-8 9.818-4.587-1.031-8-5.277-8-9.818V7.615a2 2 0 0 1 1.243-1.851l5-2.046a4.637 4.637 0 0 1 3.514 0l5 2.046A2 2 0 0 1 20 7.615v3.567Z"/><path d="m15.25 10.125-3.75 3.75-2.25-2.25"/></g><defs><clipPath id="ga"><path fill="#fff" d="M0 0h24v24H0z"/></clipPath></defs></symbol><symbol fill="none" viewBox="0 0 31 31" id="telegram2" xmlns="http://www.w3.org/2000/svg"><circle cx="15.205" cy="15.24" r="15.205" fill="#2F89CE"/><path d="m7.109 15.525 3.496 1.303 1.362 4.385c.06.296.415.355.652.178l1.956-1.6c.177-.178.474-.178.71 0l3.496 2.548c.237.177.593.059.652-.237L22.04 9.659c.06-.296-.237-.593-.533-.474l-14.398 5.57c-.356.118-.356.651 0 .77Zm4.68.652 6.874-4.207c.118-.06.237.118.118.178l-5.628 5.273c-.178.178-.356.415-.356.71l-.178 1.423c0 .178-.296.237-.355 0l-.711-2.607c-.178-.296-.06-.652.237-.77Z" fill="#fff"/></symbol><symbol fill="none" viewBox="0 0 31 31" id="whatsapp2" xmlns="http://www.w3.org/2000/svg"><circle cx="15.419" cy="15.24" r="15.205" fill="#67C15F"/><path d="M21.446 9.206a7.928 7.928 0 0 0-5.619-2.329c-4.395 0-7.955 3.548-7.955 7.928a8.02 8.02 0 0 0 1.057 3.936l-1.113 4.102 4.228-1.109a8.134 8.134 0 0 0 3.783.943c4.395 0 7.955-3.548 7.955-7.928-.056-2.05-.834-4.046-2.336-5.543Zm-1.78 8.426c-.167.444-.946.887-1.336.942a3.122 3.122 0 0 1-1.223-.055c-.279-.11-.668-.222-1.113-.443-2.003-.832-3.282-2.828-3.393-2.994-.112-.11-.835-1.053-.835-2.051 0-.998.5-1.442.668-1.663.167-.222.39-.222.556-.222h.39c.11 0 .277-.055.444.333.167.388.557 1.386.612 1.441a.352.352 0 0 1 0 .333 1.16 1.16 0 0 1-.222.332c-.112.111-.223.277-.278.333-.112.11-.223.222-.112.388.112.222.501.831 1.113 1.386.779.665 1.39.887 1.613.998.223.11.334.055.445-.056.111-.11.5-.554.612-.776.111-.222.278-.166.445-.11.167.055 1.168.554 1.335.665.223.11.334.166.39.221.055.166.055.555-.111.998Z" fill="#fff"/></symbol></svg>