<?xml version="1.0" encoding="utf-8"?><svg xmlns="http://www.w3.org/2000/svg" xmlns:xlink="http://www.w3.org/1999/xlink"><symbol fill="none" viewBox="0 0 24 24" id="arrow-right" xmlns="http://www.w3.org/2000/svg"><path d="M19 12H5m9 5 5-5m-5-5 5 5" stroke="#E30611" stroke-width="1.5" stroke-linecap="round" stroke-linejoin="round"/></symbol><symbol fill="none" viewBox="0 0 24 24" id="beware" xmlns="http://www.w3.org/2000/svg"><g stroke="#E30611" stroke-width="1.5" stroke-linecap="round" stroke-linejoin="round" clip-path="url(#aba)"><path d="m7.414 20.414-3.828-3.828A2 2 0 0 1 3 15.172V8.828a2 2 0 0 1 .586-1.414l3.828-3.828A2 2 0 0 1 8.828 3h6.343a2 2 0 0 1 1.414.586l3.828 3.828c.376.375.587.884.587 1.414v6.343a2 2 0 0 1-.586 1.414L16 21H8.828a2 2 0 0 1-1.414-.586ZM9 15l6-6m0 6L9 9"/></g><defs><clipPath id="aba"><path fill="#fff" d="M0 0h24v24H0z"/></clipPath></defs></symbol><symbol fill="none" viewBox="0 0 24 24" id="delivery" xmlns="http://www.w3.org/2000/svg"><g stroke="#A1A2A6" stroke-width="1.5" stroke-linecap="round" stroke-linejoin="round" clip-path="url(#aca)"><path d="M2.848 20.875h18.304c.468 0 .848-.38.848-.848v-1.179a.848.848 0 0 0-.848-.848H2.848a.848.848 0 0 0-.848.848v1.179c0 .468.38.848.848.848ZM14.016 18v-6a1 1 0 0 1 1-1H20a1 1 0 0 1 1 1v6m-4-3h1M8.586 5.973a2.073 2.073 0 1 1-2.932 2.932 2.073 2.073 0 0 1 2.932-2.932ZM3.183 18l.66-3.962a2 2 0 0 1 1.972-1.672h2.63a2 2 0 0 1 1.968 1.651L11.12 18"/></g><defs><clipPath id="aca"><path fill="#fff" d="M0 0h24v24H0z"/></clipPath></defs></symbol><symbol fill="none" viewBox="0 0 24 24" id="done" xmlns="http://www.w3.org/2000/svg"><g stroke="#A1A2A6" stroke-width="1.5" stroke-linecap="round" stroke-linejoin="round" clip-path="url(#ada)"><path d="m8.712 12.566 2.193 2.193 4.787-4.788"/><path d="M19 21H5a2 2 0 0 1-2-2V5a2 2 0 0 1 2-2h14a2 2 0 0 1 2 2v14a2 2 0 0 1-2 2Z"/></g><defs><clipPath id="ada"><path fill="#fff" d="M0 0h24v24H0z"/></clipPath></defs></symbol><symbol fill="none" viewBox="0 0 24 24" id="dropdown-arrow" xmlns="http://www.w3.org/2000/svg"><g clip-path="url(#aea)"><path d="m8 10 4 4 4-4" stroke="#E30611" stroke-width="1.5" stroke-linecap="round" stroke-linejoin="round"/></g><defs><clipPath id="aea"><path fill="#fff" d="M0 0h24v24H0z"/></clipPath></defs></symbol><symbol fill="none" viewBox="0 0 24 24" id="fast-delivery" xmlns="http://www.w3.org/2000/svg"><g stroke="#A1A2A6" stroke-width="1.5" stroke-linecap="round" stroke-linejoin="round" clip-path="url(#afa)"><path d="M3 7H2m2-3H2m15 16H3M17.275 4l-.986 3.287A1.001 1.001 0 0 1 15.33 8h-3.112a1 1 0 0 1-.958-1.287L12.075 4M8 13h2.13"/><path d="M17.438 16H6.85a2.4 2.4 0 0 1-2.299-3.09l2.16-7.2A2.4 2.4 0 0 1 9.01 4H19.6a2.4 2.4 0 0 1 2.298 3.09l-2.16 7.2a2.402 2.402 0 0 1-2.3 1.71Z"/></g><defs><clipPath id="afa"><path fill="#fff" d="M0 0h24v24H0z"/></clipPath></defs></symbol><symbol fill="none" viewBox="0 0 31 31" id="fb" xmlns="http://www.w3.org/2000/svg"><circle cx="15.616" cy="15.205" r="15.205" fill="#2E6AE4"/><path fill-rule="evenodd" clip-rule="evenodd" d="M22.807 10.585v1.62h-6.21v2.154l2.396.037 2.396.037.038 1.519.039 1.518h-4.869v4.185h-3.375V12.07h-.724c-1.328 0-1.893.926-1.082 1.772l.353.37-.422 1.383c-.232.76-.449 1.41-.482 1.442-.122.122-1.376-.587-1.914-1.083-.801-.738-1.18-1.681-1.182-2.939-.002-1.538.474-2.41 1.808-3.314.981-.665 1.525-.717 7.594-.727l5.636-.009v1.62Z" fill="#fff"/></symbol><symbol fill="none" viewBox="0 0 111 47" id="logo" xmlns="http://www.w3.org/2000/svg"><path d="M2.21 44.722v-.71a1.717 1.717 0 0 1-.754-.033 1.574 1.574 0 0 1-.64-.353 1.766 1.766 0 0 1-.441-.657 2.502 2.502 0 0 1-.163-.94c0-.361.054-.676.163-.945.108-.27.255-.492.442-.664a1.59 1.59 0 0 1 .64-.36c.24-.071.49-.084.752-.04v-.388h.735v.389a1.631 1.631 0 0 1 1.39.399c.188.172.337.393.445.664.11.27.166.584.166.944 0 .358-.055.672-.166.94a1.746 1.746 0 0 1-.445.658c-.187.17-.4.287-.64.353a1.7 1.7 0 0 1-.75.032v.71H2.21Zm0-1.397v-2.63a1.067 1.067 0 0 0-.556.043.897.897 0 0 0-.385.286 1.276 1.276 0 0 0-.226.453c-.05.172-.074.356-.074.551 0 .194.024.376.074.548.05.17.125.317.226.442a.88.88 0 0 0 .385.269c.158.056.343.07.555.038Zm.734 0c.212.031.396.018.552-.038a.88.88 0 0 0 .385-.27c.104-.122.18-.267.23-.434a1.9 1.9 0 0 0 0-1.082 1.317 1.317 0 0 0-.23-.459.903.903 0 0 0-.385-.297 1.002 1.002 0 0 0-.552-.05v2.63Zm2.711 1.397 1.655-5.09h1.063l1.655 5.09H9.26l-1.524-4.645h.191l-1.506 4.645h-.767Zm.86-1.15v-.692h2.657v.693H6.514Zm4.642 1.15v-5.09h3.319v.696h-2.58v1.227h1.318c.047 0 .107.002.18.007.076.002.146.008.212.017.276.033.508.123.697.269.19.146.334.331.43.555.1.224.15.469.15.735s-.049.512-.146.735a1.37 1.37 0 0 1-.43.555 1.384 1.384 0 0 1-.7.269 2.667 2.667 0 0 1-.393.025h-2.057Zm.739-.697h1.29a1.89 1.89 0 0 0 .321-.028c.229-.047.39-.155.481-.325a1.083 1.083 0 0 0 0-1.068c-.092-.17-.252-.278-.48-.325a1.892 1.892 0 0 0-.322-.028h-1.29v1.774Zm4.188.697v-5.09h2.057c.05 0 .11.002.184.007.073.002.142.01.208.021.283.045.519.141.707.29.191.148.334.336.428.562.094.226.141.476.141.75 0 .275-.047.526-.141.752a1.365 1.365 0 0 1-.428.562 1.5 1.5 0 0 1-.707.29 2.693 2.693 0 0 1-.392.028h-1.318v1.828h-.74Zm.739-2.528h1.29c.047 0 .099-.002.155-.007a1.17 1.17 0 0 0 .166-.024.725.725 0 0 0 .364-.195.856.856 0 0 0 .198-.332 1.189 1.189 0 0 0 0-.746.827.827 0 0 0-.198-.329.712.712 0 0 0-.364-.198.9.9 0 0 0-.166-.028 1.89 1.89 0 0 0-.155-.007h-1.29v1.866Zm8.193 2.528h-.75v-3.786l-2.506 3.786h-.75v-5.09h.75v3.782l2.506-3.782h.75v5.09Zm1.481 0v-5.09h.739v2.375l2.131-2.375h.92l-2.252 2.485 2.417 2.605h-.947l-2.27-2.432v2.432h-.738Zm4.594 0 1.655-5.09h1.064l1.654 5.09h-.767l-1.524-4.645h.191l-1.506 4.645h-.767Zm.86-1.15v-.692h2.657v.693H31.95Zm8.676 1.256c-.509 0-.942-.111-1.3-.333a2.189 2.189 0 0 1-.824-.933c-.189-.398-.283-.86-.283-1.385 0-.526.094-.988.283-1.386.19-.398.465-.708.824-.93.358-.223.791-.335 1.3-.335.507 0 .94.112 1.298.335.36.222.635.532.823.93.189.398.283.86.283 1.386 0 .525-.094.987-.283 1.385a2.16 2.16 0 0 1-.823.934c-.359.221-.791.332-1.298.332Zm0-.704c.36.005.66-.074.898-.236a1.5 1.5 0 0 0 .541-.686c.12-.295.18-.636.18-1.025 0-.39-.06-.728-.18-1.018-.12-.292-.3-.52-.54-.682-.239-.163-.538-.246-.899-.248-.36-.005-.66.074-.901.237a1.485 1.485 0 0 0-.537.686c-.12.294-.182.636-.184 1.025-.003.389.056.729.177 1.021.12.29.3.516.54.679.243.162.545.245.905.247Zm5.318.598v-.71a1.717 1.717 0 0 1-.753-.033 1.574 1.574 0 0 1-.64-.353 1.767 1.767 0 0 1-.441-.657 2.502 2.502 0 0 1-.163-.94c0-.361.054-.676.163-.945.108-.27.255-.492.442-.664a1.59 1.59 0 0 1 .64-.36c.24-.071.49-.084.752-.04v-.388h.735v.389a1.632 1.632 0 0 1 1.39.399c.188.172.337.393.445.664.11.27.166.584.166.944 0 .358-.055.672-.166.94a1.746 1.746 0 0 1-.445.658c-.187.17-.4.287-.64.353a1.7 1.7 0 0 1-.75.032v.71h-.735Zm0-1.397v-2.63a1.068 1.068 0 0 0-.555.043.897.897 0 0 0-.385.286 1.275 1.275 0 0 0-.226.453c-.05.172-.075.356-.075.551 0 .194.025.376.075.548.05.17.125.317.226.442a.88.88 0 0 0 .385.269c.158.056.343.07.555.038Zm.735 0c.212.031.396.018.552-.038a.88.88 0 0 0 .385-.27c.104-.122.18-.267.23-.434a1.9 1.9 0 0 0 0-1.082 1.317 1.317 0 0 0-.23-.459.902.902 0 0 0-.385-.297 1.002 1.002 0 0 0-.552-.05v2.63Zm7.208 1.397h-.75v-3.786l-2.506 3.786h-.75v-5.09h.75v3.782l2.506-3.782h.75v5.09Zm3.605.106c-.509 0-.942-.111-1.3-.333a2.189 2.189 0 0 1-.824-.933c-.188-.398-.283-.86-.283-1.385 0-.526.095-.988.283-1.386.19-.398.465-.708.824-.93.358-.223.791-.335 1.3-.335.587 0 1.073.148 1.457.445a2.3 2.3 0 0 1 .806 1.198l-.75.202a1.574 1.574 0 0 0-.53-.838c-.252-.203-.58-.304-.983-.304-.36 0-.66.081-.9.244a1.5 1.5 0 0 0-.545.682c-.12.292-.18.633-.18 1.022-.003.389.056.729.176 1.021a1.5 1.5 0 0 0 .545.682c.242.163.544.244.904.244.403 0 .73-.101.983-.304.255-.205.431-.484.53-.837l.75.201a2.3 2.3 0 0 1-.806 1.198c-.384.297-.87.446-1.457.446Zm3.535-.106v-5.09h.739v2.195h2.545v-2.195h.742v5.09h-.742v-2.199h-2.545v2.199h-.74Zm7.638.106c-.509 0-.942-.111-1.3-.333a2.19 2.19 0 0 1-.824-.933c-.189-.398-.283-.86-.283-1.385 0-.526.094-.988.283-1.386.19-.398.465-.708.823-.93.359-.223.792-.335 1.301-.335.507 0 .94.112 1.297.335.36.222.636.532.824.93.188.398.283.86.283 1.386 0 .525-.094.987-.283 1.385a2.16 2.16 0 0 1-.824.934c-.358.221-.79.332-1.297.332Zm0-.704c.36.005.66-.074.898-.236a1.5 1.5 0 0 0 .54-.686c.121-.295.181-.636.181-1.025 0-.39-.06-.728-.18-1.018a1.47 1.47 0 0 0-.541-.682c-.238-.163-.537-.246-.898-.248-.36-.005-.66.074-.901.237a1.485 1.485 0 0 0-.537.686c-.12.294-.182.636-.184 1.025-.003.389.056.729.177 1.021.12.29.3.516.54.679.243.162.545.245.905.247Zm3.604.598v-5.09h.75v3.782l2.505-3.782h.75v5.09h-.75v-3.786l-2.506 3.786h-.75Zm2.014-5.529a.977.977 0 0 1-.512-.137 1.056 1.056 0 0 1-.368-.368.977.977 0 0 1-.138-.513h.587c0 .118.043.22.128.304a.415.415 0 0 0 .303.128c.12 0 .222-.043.304-.128a.415.415 0 0 0 .128-.304h.587c0 .189-.046.36-.138.513a1.046 1.046 0 0 1-.372.367.97.97 0 0 1-.509.138Zm5.382 5.529v-5.09h.668l1.845 3.828 1.835-3.828h.675v5.086h-.7v-3.482l-1.644 3.486h-.335l-1.648-3.486v3.486h-.696Zm6.508 0v-5.09h3.252v.696h-2.513v1.428h2.089v.696h-2.09v1.573h2.514v.697h-3.252Zm4.596 0v-5.09h3.319v.696h-2.58v1.227h1.318c.047 0 .107.002.18.007.076.002.146.008.212.017.276.033.508.123.697.269.19.146.334.331.43.555.1.224.15.469.15.735s-.049.512-.146.735a1.37 1.37 0 0 1-.43.555 1.384 1.384 0 0 1-.7.269 2.67 2.67 0 0 1-.393.025H90.77Zm.739-.697h1.29a1.887 1.887 0 0 0 .321-.028c.229-.047.39-.155.481-.325a1.084 1.084 0 0 0 0-1.068c-.092-.17-.252-.278-.48-.325a1.89 1.89 0 0 0-.322-.028h-1.29v1.774Zm4.188.697v-5.09h3.252v.696h-2.513v1.428h2.089v.696h-2.09v1.573h2.514v.697h-3.252Zm4.242 0v-.633c.12.012.219.006.297-.018a.4.4 0 0 0 .201-.148.978.978 0 0 0 .138-.325c.04-.142.079-.324.117-.548.052-.285.095-.579.131-.88a33.896 33.896 0 0 0 .191-2.538h3.34v5.09h-.739v-4.394h-1.909c-.011.188-.026.4-.042.633-.017.233-.037.48-.06.742-.024.262-.053.531-.088.81-.033.278-.076.557-.128.837a5.06 5.06 0 0 1-.155.65 1.496 1.496 0 0 1-.248.485.743.743 0 0 1-.406.254c-.167.045-.381.04-.64-.017Zm9.907 0h-.75v-3.786l-2.506 3.786h-.749v-5.09h.749v3.782l2.506-3.782h.75v5.09Z" fill="#131721"/><path fill-rule="evenodd" clip-rule="evenodd" d="M47 14.722v20h-6v-20h6Z" fill="#E30611"/><path fill-rule="evenodd" clip-rule="evenodd" d="M27.094 1.722H0v33h6v-27h20.895c.896.07 2.167.41 3.172 1.256.919.774 1.933 2.23 1.933 5.244 0 1.962-.857 3.277-1.957 4.174-1.22.994-2.566 1.326-3.043 1.326H9.5v6h13.12l7.714 9h7.903l-8.195-9.561a12.575 12.575 0 0 0 3.79-2.114C36.108 21.194 38 18.26 38 14.222c0-4.587-1.652-7.798-4.067-9.832-2.297-1.935-4.978-2.552-6.746-2.662l-.093-.006Zm13.608 0 20.23 33.716L82.284 1.722h-7.102L61.069 24.006 47.7 1.722h-6.997Z" fill="#131721"/><path fill-rule="evenodd" clip-rule="evenodd" d="M41 1.722v.497l6 10V1.722h-6Z" fill="#E30611"/><path fill-rule="evenodd" clip-rule="evenodd" d="M110.8 34.722 90.08 0 68.033 34.722h7.107l14.78-23.279 4.94 8.279h-6.664l-3.81 6h14.055l5.371 9h6.987Z" fill="#131721"/></symbol><symbol fill="none" viewBox="0 0 36 22" id="maestro" xmlns="http://www.w3.org/2000/svg"><path d="M23.117 19.354H13.44V1.935h9.677v17.42Z" fill="#6C6BBD"/><path d="M14.167 10.645c0-3.395 1.608-6.42 4.112-8.369A10.797 10.797 0 0 0 11.625 0C5.68 0 .86 4.766.86 10.645c0 5.88 4.82 10.646 10.766 10.646a10.8 10.8 0 0 0 6.654-2.276c-2.504-1.95-4.112-4.974-4.112-8.37" fill="#EB001B"/><path d="M35.698 10.645c0 5.88-4.82 10.646-10.765 10.646a10.8 10.8 0 0 1-6.654-2.276c2.504-1.95 4.112-4.974 4.112-8.37 0-3.395-1.608-6.42-4.112-8.369A10.8 10.8 0 0 1 24.933 0c5.945 0 10.765 4.766 10.765 10.645" fill="#0099DF"/></symbol><symbol fill="none" viewBox="0 0 24 24" id="mail" xmlns="http://www.w3.org/2000/svg"><g stroke="#A1A2A6" stroke-width="1.5" stroke-linecap="round" stroke-linejoin="round"><path d="M19 18.981H5a2 2 0 0 1-2-2V7.019a2 2 0 0 1 2-2h14a2 2 0 0 1 2 2v9.963a2 2 0 0 1-2 1.999Z"/><path d="m17 9-5 3-5-3"/></g></symbol><symbol fill="none" viewBox="0 0 24 24" id="marker" xmlns="http://www.w3.org/2000/svg"><g stroke="#A1A2A6" stroke-width="1.447" stroke-linecap="round" stroke-linejoin="round" clip-path="url(#aka)"><path d="M5.127 10.045v-.172a6.873 6.873 0 1 1 13.746 0v.172c0 3.461-4.382 8.671-6.148 10.631a.973.973 0 0 1-1.45 0c-1.766-1.96-6.148-7.17-6.148-10.631Z"/><path d="M10 9.955a2 2 0 1 0 4 0v-.037a2 2 0 1 0-4 0"/></g><defs><clipPath id="aka"><path fill="#fff" d="M0 0h24v24H0z"/></clipPath></defs></symbol><symbol fill="none" viewBox="0 0 35 22" id="mastercard" xmlns="http://www.w3.org/2000/svg"><path fill="#FF5F00" d="M12.729 2.305h9.42v16.95h-9.42z"/><path d="M13.328 10.782a10.766 10.766 0 0 1 4.112-8.477A10.757 10.757 0 0 0 2.878 3.467a10.788 10.788 0 0 0 0 14.626 10.757 10.757 0 0 0 14.562 1.162 10.765 10.765 0 0 1-4.113-8.473Z" fill="#EB001B"/><path d="M34.86 10.782a10.78 10.78 0 0 1-6.062 9.695 10.756 10.756 0 0 1-11.358-1.222 10.784 10.784 0 0 0 0-16.95 10.756 10.756 0 0 1 11.358-1.221 10.78 10.78 0 0 1 6.062 9.695v.003Z" fill="#F79E1B"/></symbol><symbol fill="none" viewBox="0 0 40 12" id="mir" xmlns="http://www.w3.org/2000/svg"><path d="M35.389 0h-7.444c.433 2.457 2.818 4.77 5.42 4.77h5.926c.073-.217.073-.578.073-.795C39.364 1.807 37.556 0 35.389 0Z" fill="url(#ama)"/><path d="M28.595 5.203v5.999h3.614v-3.18h3.18c1.734 0 3.252-1.229 3.758-2.819H28.595ZM15.875 0v11.13h3.18s.795 0 1.229-.795c2.168-4.264 2.818-5.565 2.818-5.565h.434v6.36h3.614V0h-3.18s-.795.072-1.229.795c-1.807 3.686-2.819 5.565-2.819 5.565h-.433V0h-3.614ZM.698 11.202V.072h3.614s1.012 0 1.59 1.59c1.445 4.192 1.59 4.77 1.59 4.77s.289-1.012 1.59-4.77c.578-1.59 1.59-1.59 1.59-1.59h3.613v11.13h-3.613V5.204h-.434l-2.024 5.998h-1.59L4.602 5.204h-.434v5.998H.698Z" fill="#4FAD50"/><defs><linearGradient id="ama" x1="27.932" y1="2.419" x2="39.338" y2="2.419" gradientUnits="userSpaceOnUse"><stop stop-color="#27B1E6"/><stop offset="1" stop-color="#148ACA"/></linearGradient></defs></symbol><symbol fill="none" viewBox="0 0 24 24" id="move" xmlns="http://www.w3.org/2000/svg"><g clip-path="url(#ana)" stroke="#E30611" stroke-width="1.5" stroke-linecap="round" stroke-linejoin="round"><path d="M2.586 12.914 4.5 11l2.027 2.027M4.5 11v6m6.586-14.414L13 4.5l-2.027 2.027M13 4.5H7m14.414 6.586L19.5 13l-2.027-2.027M19.5 13V7m-6.586 14.414L11 19.5l2.027-2.027M11 19.5h6M2 4.5a2.5 2.5 0 1 1 5 0 2.5 2.5 0 0 1-5 0ZM19.5 2a2.5 2.5 0 1 1 0 5 2.5 2.5 0 0 1 0-5ZM22 19.5a2.5 2.5 0 1 1-5 0 2.5 2.5 0 0 1 5 0ZM4.5 22a2.5 2.5 0 1 1 0-5 2.5 2.5 0 0 1 0 5Z"/></g><defs><clipPath id="ana"><path fill="#fff" d="M0 0h24v24H0z"/></clipPath></defs></symbol><symbol fill="none" viewBox="0 0 31 30" id="ok" xmlns="http://www.w3.org/2000/svg"><path d="M.41 15c0-8.284 6.716-15 15-15 8.285 0 15 6.716 15 15 0 8.284-6.715 15-15 15-8.284 0-15-6.716-15-15Z" fill="#F68634"/><path d="m17.033 18.4 2.242 2.164a1.106 1.106 0 0 1 0 1.604 1.204 1.204 0 0 1-1.66 0L15.41 20.04l-2.202 2.127c-.23.221-.53.332-.831.332-.3 0-.601-.11-.83-.332a1.107 1.107 0 0 1-.001-1.604l2.242-2.164a7.672 7.672 0 0 1-2.329-.93 1.111 1.111 0 0 1-.367-1.564 1.197 1.197 0 0 1 1.619-.357 5.247 5.247 0 0 0 5.399 0 1.199 1.199 0 0 1 1.62.357c.346.53.18 1.23-.368 1.563a7.66 7.66 0 0 1-2.329.931Z" fill="#fff"/><path fill-rule="evenodd" clip-rule="evenodd" d="M11.39 11.371c0 2.134 1.799 3.87 4.01 3.87 2.212 0 4.01-1.736 4.01-3.87 0-2.135-1.798-3.871-4.01-3.871-2.211 0-4.01 1.736-4.01 3.871Zm5.67 0c0-.884-.744-1.602-1.66-1.602-.915 0-1.66.718-1.66 1.602 0 .883.745 1.602 1.66 1.602.916 0 1.66-.719 1.66-1.602Z" fill="#fff"/></symbol><symbol fill="none" viewBox="0 0 18 18" id="phone" xmlns="http://www.w3.org/2000/svg"><path d="M8.175 9.825c-.9-.9-1.575-1.875-1.95-2.85-.075-.225-.075-.45.15-.6l.6-.6c.525-.525.525-1.2.075-1.65l-.9-.9c-.6-.6-1.5-.6-2.1 0l-.525.525a2.492 2.492 0 0 0-.675 2.175c.375 1.95 1.5 4.125 3.375 5.925 1.8 1.8 3.975 3 5.925 3.375a2.521 2.521 0 0 0 2.175-.6l.525-.525c.6-.6.6-1.5 0-2.1l-.9-.9a1.088 1.088 0 0 0-1.575 0l-.675.675a.583.583 0 0 1-.6.15 11.091 11.091 0 0 1-2.925-2.1Z" stroke="#A1A2A6" stroke-width="1.5" stroke-miterlimit="10" stroke-linecap="round" stroke-linejoin="round"/></symbol><symbol fill="none" viewBox="0 0 18 18" id="phone_copy" xmlns="http://www.w3.org/2000/svg"><path d="M8.175 9.825c-.9-.9-1.575-1.875-1.95-2.85-.075-.225-.075-.45.15-.6l.6-.6c.525-.525.525-1.2.075-1.65l-.9-.9c-.6-.6-1.5-.6-2.1 0l-.525.525a2.492 2.492 0 0 0-.675 2.175c.375 1.95 1.5 4.125 3.375 5.925 1.8 1.8 3.975 3 5.925 3.375a2.521 2.521 0 0 0 2.175-.6l.525-.525c.6-.6.6-1.5 0-2.1l-.9-.9a1.088 1.088 0 0 0-1.575 0l-.675.675a.583.583 0 0 1-.6.15 11.091 11.091 0 0 1-2.925-2.1Z" stroke="#A1A2A6" stroke-width="1.5" stroke-miterlimit="10" stroke-linecap="round" stroke-linejoin="round"/></symbol><symbol fill="none" viewBox="0 0 31 30" id="pinterest" xmlns="http://www.w3.org/2000/svg"><path d="M15.41 29.877c8.285 0 15-6.688 15-14.938S23.696 0 15.41 0c-8.284 0-15 6.688-15 14.938s6.716 14.939 15 14.939Z" fill="#fff"/><path d="M15.41 0c-8.283 0-15 6.689-15 14.938 0 6.332 3.951 11.742 9.532 13.919-.136-1.18-.247-3 .049-4.291.271-1.168 1.753-7.427 1.753-7.427s-.444-.897-.444-2.213c0-2.078 1.21-3.627 2.716-3.627 1.284 0 1.9.96 1.9 2.103 0 1.278-.814 3.196-1.246 4.98-.358 1.487.753 2.704 2.222 2.704 2.667 0 4.716-2.803 4.716-6.836 0-3.578-2.58-6.074-6.271-6.074-4.272 0-6.778 3.185-6.778 6.48 0 1.278.494 2.655 1.11 3.405a.443.443 0 0 1 .1.43c-.111.468-.37 1.489-.42 1.698-.062.27-.222.331-.506.196-1.877-.873-3.05-3.59-3.05-5.79 0-4.71 3.432-9.038 9.914-9.038 5.197 0 9.247 3.689 9.247 8.631 0 5.152-3.26 9.296-7.778 9.296-1.518 0-2.95-.787-3.432-1.722l-.938 3.554c-.334 1.303-1.247 2.926-1.864 3.922 1.407.43 2.888.664 4.444.664 8.284 0 15-6.689 15-14.939C30.411 6.69 23.695 0 15.411 0Z" fill="#E60019"/></symbol><symbol fill="none" viewBox="0 0 24 24" id="qiwi" xmlns="http://www.w3.org/2000/svg"><g fill="#F28A1A"><path d="M18.725 14.668c.388.166.554.72.554.996.055.443-.056.665-.222.665s-.387-.166-.609-.554c-.221-.387-.332-.775-.221-.996.166-.11.332-.166.498-.11Zm-2.269 1.716c.221 0 .498.11.775.332.443.387.609.83.387 1.162-.11.166-.387.277-.608.277-.277 0-.554-.11-.72-.277-.443-.387-.554-.94-.277-1.273.055-.11.222-.221.443-.221Z"/><path d="M11.198 20.757c-5.757 0-10.406-4.65-10.406-10.35C.792 4.704 5.44 0 11.198 0c5.756 0 10.406 4.65 10.406 10.406 0 1.937-.554 3.764-1.44 5.314-.055.055-.11.055-.11-.056-.388-2.546-1.938-3.93-4.152-4.372-.221-.056-.221-.166.056-.166.72-.056 1.66-.056 2.214.055.055-.277.055-.553.055-.775 0-3.764-3.1-6.864-6.863-6.864-3.764 0-6.864 3.1-6.864 6.864s3.1 6.864 6.864 6.864h.332a7.044 7.044 0 0 1-.111-1.882c0-.443.11-.498.277-.166.94 1.66 2.325 3.1 4.981 3.708 2.16.498 4.318 1.052 6.698 3.986.221.276-.11.553-.332.332-2.38-2.104-4.539-2.823-6.532-2.823-2.49.055-3.985.332-5.48.332Z"/></g></symbol><symbol fill="none" viewBox="0 0 18 18" id="route" xmlns="http://www.w3.org/2000/svg"><path d="M4.875 6a1.5 1.5 0 1 0 0-3 1.5 1.5 0 0 0 0 3Zm4.275 7.5h-2.7c-1.125 0-1.95-.975-1.95-2.25S5.4 9 6.45 9h5.025c1.125 0 1.95-.975 1.95-2.25s-.9-2.25-1.95-2.25H8.4" stroke="#969FA8" stroke-width="1.5" stroke-miterlimit="10" stroke-linecap="round" stroke-linejoin="round"/><path d="m12.225 15.15 2.175-1.275c.3-.15.3-.525 0-.75l-2.175-1.275c-.3-.15-.6 0-.6.375v2.55c0 .3.375.525.6.375Z" stroke="#969FA8" stroke-width="1.5" stroke-linecap="round" stroke-linejoin="round"/></symbol><symbol fill="none" viewBox="0 0 28 28" id="search" xmlns="http://www.w3.org/2000/svg"><g stroke="#131721" stroke-width="1.5" stroke-linecap="round" stroke-linejoin="round" clip-path="url(#aua)"><path d="M18.333 7.978A7.322 7.322 0 1 1 7.978 18.333 7.322 7.322 0 0 1 18.333 7.978Zm3.833 14.189-3.838-3.839"/></g><defs><clipPath id="aua"><path fill="#fff" d="M0 0h28v28H0z"/></clipPath></defs></symbol><symbol fill="none" viewBox="0 0 24 24" id="settings" xmlns="http://www.w3.org/2000/svg"><g stroke="#A1A2A6" stroke-width="1.5" stroke-linecap="round" stroke-linejoin="round" clip-path="url(#ava)"><path d="m17.196 5 3.464 6a2.001 2.001 0 0 1 0 2l-3.464 6a2 2 0 0 1-1.732 1H8.536a1.999 1.999 0 0 1-1.732-1L3.34 13a2.001 2.001 0 0 1 0-2l3.464-6a2 2 0 0 1 1.732-1h6.929c.714 0 1.374.381 1.731 1Z"/><path d="M14.8 9.2a3.96 3.96 0 1 1-5.6 5.6 3.96 3.96 0 0 1 5.6-5.6Z"/></g><defs><clipPath id="ava"><path fill="#fff" d="M0 0h24v24H0z"/></clipPath></defs></symbol><symbol fill="none" viewBox="0 0 24 24" id="shield" xmlns="http://www.w3.org/2000/svg"><g stroke="#A1A2A6" stroke-width="1.5" stroke-linecap="round" stroke-linejoin="round" clip-path="url(#awa)"><path d="M20 11.182c0 4.541-3.413 8.787-8 9.818-4.587-1.031-8-5.277-8-9.818V7.615a2 2 0 0 1 1.243-1.851l5-2.046a4.637 4.637 0 0 1 3.514 0l5 2.046A2 2 0 0 1 20 7.615v3.567Z"/><path d="m15.25 10.125-3.75 3.75-2.25-2.25"/></g><defs><clipPath id="awa"><path fill="#fff" d="M0 0h24v24H0z"/></clipPath></defs></symbol><symbol fill="none" viewBox="0 0 31 31" id="telegram" xmlns="http://www.w3.org/2000/svg"><circle cx="15.205" cy="15.24" r="15.205" fill="#2F89CE"/><path d="m7.109 15.525 3.496 1.303 1.362 4.385c.06.296.415.355.652.178l1.956-1.6c.177-.178.474-.178.71 0l3.496 2.548c.237.177.593.059.652-.237L22.04 9.659c.06-.296-.237-.593-.533-.474l-14.398 5.57c-.356.118-.356.651 0 .77Zm4.68.652 6.874-4.207c.118-.06.237.118.118.178l-5.628 5.273c-.178.178-.356.415-.356.71l-.178 1.423c0 .178-.296.237-.355 0l-.711-2.607c-.178-.296-.06-.652.237-.77Z" fill="#fff"/></symbol><symbol fill="none" viewBox="0 0 31 31" id="telegram2" xmlns="http://www.w3.org/2000/svg"><circle cx="15.205" cy="15.24" r="15.205" fill="#2F89CE"/><path d="m7.109 15.525 3.496 1.303 1.362 4.385c.06.296.415.355.652.178l1.956-1.6c.177-.178.474-.178.71 0l3.496 2.548c.237.177.593.059.652-.237L22.04 9.659c.06-.296-.237-.593-.533-.474l-14.398 5.57c-.356.118-.356.651 0 .77Zm4.68.652 6.874-4.207c.118-.06.237.118.118.178l-5.628 5.273c-.178.178-.356.415-.356.71l-.178 1.423c0 .178-.296.237-.355 0l-.711-2.607c-.178-.296-.06-.652.237-.77Z" fill="#fff"/></symbol><symbol fill="none" viewBox="0 0 18 18" id="time" xmlns="http://www.w3.org/2000/svg"><path d="M12.45 12 8.775 9.825v-4.8" stroke="#A1A2A6" stroke-width="1.5" stroke-linecap="round" stroke-linejoin="round"/><path d="M9 15.75a6.75 6.75 0 1 0 0-13.5 6.75 6.75 0 0 0 0 13.5Z" stroke="#A1A2A6" stroke-width="1.5" stroke-linecap="round" stroke-linejoin="round"/></symbol><symbol fill="none" viewBox="0 0 46 14" id="visa" xmlns="http://www.w3.org/2000/svg"><path d="M41.993.197h-2.83c-.856 0-1.514.264-1.909 1.12l-5.397 12.307h3.818s.658-1.645.79-2.04h4.672c.132.46.461 1.975.461 1.975h3.423L41.993.197ZM37.517 8.82c.33-.79 1.448-3.752 1.448-3.752 0 .066.33-.79.461-1.25l.264 1.184s.724 3.225.855 3.883h-3.028V8.82Zm-5.397.395c0 2.764-2.501 4.607-6.384 4.607-1.646 0-3.226-.329-4.081-.724l.526-3.028.461.198c1.185.526 1.975.724 3.423.724 1.053 0 2.172-.395 2.172-1.316 0-.593-.461-.988-1.909-1.646-1.382-.658-3.225-1.711-3.225-3.62C23.103 1.777 25.67 0 29.29 0c1.382 0 2.567.263 3.29.592l-.526 2.896-.263-.263a7.073 7.073 0 0 0-2.764-.526c-1.383.065-2.04.658-2.04 1.184 0 .593.789 1.053 2.04 1.646 2.106.987 3.093 2.106 3.093 3.686Z" fill="#3362AB"/><path d="M0 .33.066.065h5.66c.79 0 1.383.263 1.58 1.119l1.25 5.924C7.307 3.949 4.41 1.382 0 .329Z" fill="#F9B50B"/><path d="m16.52.198-5.726 13.361H6.911L3.621 2.37C5.99 3.885 7.963 6.254 8.687 7.9l.395 1.382L12.637.13h3.884v.067Zm1.515-.066h3.62L19.35 13.559h-3.62L18.035.132Z" fill="#3362AB"/></symbol><symbol fill="none" viewBox="0 0 31 31" id="vk" xmlns="http://www.w3.org/2000/svg"><circle cx="15.205" cy="15.205" r="15.205" fill="#3290FF"/><path d="M22.66 19.094c0-.063-.063-.063-.063-.126-.252-.505-.82-1.136-1.578-1.83-.379-.316-.568-.568-.694-.695-.19-.252-.19-.442-.127-.694.064-.19.316-.505.758-1.073.252-.316.379-.505.568-.694.947-1.263 1.389-2.083 1.262-2.462l-.063-.063c-.063-.063-.126-.126-.252-.126-.126-.063-.316-.063-.505 0h-2.841l-.063.063c-.063.063-.063.063-.063.126-.252.694-.568 1.262-.883 1.894-.19.315-.38.63-.569.883-.189.253-.315.442-.441.568-.127.127-.253.19-.316.316-.063.063-.19.126-.19.063-.062 0-.126 0-.126-.063l-.189-.19c-.063-.063-.063-.189-.126-.315V11.52c0-.063-.063-.19-.063-.252l-.19-.19c-.063-.063-.189-.063-.252-.126a5.663 5.663 0 0 0-1.136-.126c-1.01 0-1.705.063-1.957.189-.126.063-.252.126-.316.252-.126.127-.126.19-.063.19.316.063.568.19.695.379l.063.126c.063.063.063.19.126.379s.063.378.063.63v1.01c0 .316-.063.506-.063.695 0 .19-.063.316-.126.379-.063.126-.063.19-.127.19 0 0 0 .062-.063.062s-.126.063-.252.063a.479.479 0 0 1-.253-.126.761.761 0 0 1-.315-.316 2.204 2.204 0 0 1-.379-.568c-.126-.252-.316-.505-.442-.883l-.126-.253a8.952 8.952 0 0 1-.316-.694c-.126-.316-.252-.568-.378-.884a.871.871 0 0 0-.19-.252h-.063s-.063-.063-.126-.063-.126-.063-.19-.063H7.449c-.252 0-.378.063-.442.126l-.063.063v.126c0 .063 0 .126.063.253.316.757.695 1.514 1.074 2.272.378.694.757 1.325 1.01 1.767.315.442.568.884.883 1.263.316.378.505.63.568.757l.253.253.189.189c.126.126.316.316.568.505.253.19.568.379.884.568.315.19.694.316 1.073.442.442.126.82.19 1.2.126h.946a.57.57 0 0 0 .442-.19l.063-.062c0-.064.063-.064.063-.127v-.252c0-.253 0-.442.063-.631.063-.19.063-.316.126-.442s.127-.19.19-.253l.126-.126h.063c.126-.063.316 0 .442.126.19.127.379.316.505.505.126.19.315.379.568.631.252.253.442.442.568.505l.19.127c.126.063.252.126.441.189.19.063.316.063.442.063l2.146-.063c.19 0 .379-.063.505-.126s.19-.126.19-.253v-.252c-.127-.126-.127-.19-.127-.253Z" fill="#fff"/></symbol><symbol fill="none" viewBox="0 0 22 20" id="wallet" xmlns="http://www.w3.org/2000/svg"><path d="M21.508 8.098c-.111-.664-.72-1.107-1.55-1.107h-.775c-.498-.056-.61.11-.61.498v5.756c0 .997-.995 2.049-2.158 2.27-3.653.83-7.306 1.605-10.96 2.435-.387.111-.83.111-1.272.111-.167 0-.443-.11-.499-.277-.055-.11.111-.332.222-.442.166-.111.387-.222.609-.333.664-.221 1.383-.442 2.048-.664a461.485 461.485 0 0 0 8.136-2.712c1.218-.387 1.882-1.218 1.882-2.27.056-3.32 0-6.697 0-10.018 0-.554-.276-.996-.885-1.218-.72-.277-1.384-.055-1.993.222-3.875 1.826-7.694 3.653-11.568 5.48C1.027 6.381.363 7.156.363 8.263v9.465c0 .166 0 .332.056.443.387 1.051 1.383 1.716 2.712 1.716h16.218c.609 0 1.107-.111 1.55-.498.553-.443.553-1.052.553-1.606V8.541c.11-.056.11-.277.055-.443ZM10.216 7.1c.277-.72.886-1.162 1.771-1.273.609-.055 1.107.277 1.218.83.11.83-.886 1.827-1.938 1.827-.83 0-1.328-.609-1.051-1.384Z" fill="#E47418"/></symbol><symbol fill="none" viewBox="0 0 24 23" id="webmoney" xmlns="http://www.w3.org/2000/svg"><g fill="#137ABE"><path d="m15.267 11.015-2.49-2.712-2.768 2.435 2.49 2.768 2.768-2.491ZM8.016 6.089 10.507 8.8l2.768-2.436-2.491-2.712L8.016 6.09Zm9.189 9.631-2.491-2.712-2.768 2.49 2.491 2.713 2.768-2.491Z"/><path d="m14.326 20.259-4.538-5.037 1.273-1.107-3.21-3.543 1.272-1.107-3.21-3.542 5.037-4.484 1.605 1.716 2.768-2.38 1.605 1.66 1.052-.94c-.222-.111-.498-.277-.72-.388C15.655.443 13.94 0 12.112 0 5.747 0 .544 5.148.544 11.458c0 6.31 5.203 11.458 11.624 11.458 2.103 0 4.04-.554 5.7-1.495a36.713 36.713 0 0 0 1.55-.996l-2.324-2.602-2.768 2.436Z"/><path d="m13.109 4.76 1.826 2.048 2.104-1.826-1.882-2.048-2.048 1.826Zm5.811 4.318L17.04 7.03l-2.05 1.882 1.882 1.992 2.048-1.826Zm1.772 4.317-1.882-2.048-2.048 1.827 1.882 2.103 2.048-1.882Zm.111-6.753L19.419 7.86l1.273 1.384 1.328-1.218-1.217-1.384Zm.387 5.258 1.218 1.384 1.383-1.217-1.273-1.384L21.19 11.9Zm-3.542-8.08 1.273 1.383 1.328-1.218-1.218-1.383-1.383 1.217Zm.94 13.505 1.882 2.048 2.048-1.827-1.881-2.048-2.049 1.827Z"/></g></symbol><symbol fill="none" viewBox="0 0 31 31" id="whatsapp" xmlns="http://www.w3.org/2000/svg"><circle cx="15.419" cy="15.24" r="15.205" fill="#67C15F"/><path d="M21.446 9.206a7.928 7.928 0 0 0-5.619-2.329c-4.395 0-7.955 3.548-7.955 7.928a8.02 8.02 0 0 0 1.057 3.936l-1.113 4.102 4.228-1.109a8.134 8.134 0 0 0 3.783.943c4.395 0 7.955-3.548 7.955-7.928-.056-2.05-.834-4.046-2.336-5.543Zm-1.78 8.426c-.167.444-.946.887-1.336.942a3.122 3.122 0 0 1-1.223-.055c-.279-.11-.668-.222-1.113-.443-2.003-.832-3.282-2.828-3.393-2.994-.112-.11-.835-1.053-.835-2.051 0-.998.5-1.442.668-1.663.167-.222.39-.222.556-.222h.39c.11 0 .277-.055.444.333.167.388.557 1.386.612 1.441a.352.352 0 0 1 0 .333 1.16 1.16 0 0 1-.222.332c-.112.111-.223.277-.278.333-.112.11-.223.222-.112.388.112.222.501.831 1.113 1.386.779.665 1.39.887 1.613.998.223.11.334.055.445-.056.111-.11.5-.554.612-.776.111-.222.278-.166.445-.11.167.055 1.168.554 1.335.665.223.11.334.166.39.221.055.166.055.555-.111.998Z" fill="#fff"/></symbol><symbol fill="none" viewBox="0 0 31 31" id="whatsapp2" xmlns="http://www.w3.org/2000/svg"><circle cx="15.419" cy="15.24" r="15.205" fill="#67C15F"/><path d="M21.446 9.206a7.928 7.928 0 0 0-5.619-2.329c-4.395 0-7.955 3.548-7.955 7.928a8.02 8.02 0 0 0 1.057 3.936l-1.113 4.102 4.228-1.109a8.134 8.134 0 0 0 3.783.943c4.395 0 7.955-3.548 7.955-7.928-.056-2.05-.834-4.046-2.336-5.543Zm-1.78 8.426c-.167.444-.946.887-1.336.942a3.122 3.122 0 0 1-1.223-.055c-.279-.11-.668-.222-1.113-.443-2.003-.832-3.282-2.828-3.393-2.994-.112-.11-.835-1.053-.835-2.051 0-.998.5-1.442.668-1.663.167-.222.39-.222.556-.222h.39c.11 0 .277-.055.444.333.167.388.557 1.386.612 1.441a.352.352 0 0 1 0 .333 1.16 1.16 0 0 1-.222.332c-.112.111-.223.277-.278.333-.112.11-.223.222-.112.388.112.222.501.831 1.113 1.386.779.665 1.39.887 1.613.998.223.11.334.055.445-.056.111-.11.5-.554.612-.776.111-.222.278-.166.445-.11.167.055 1.168.554 1.335.665.223.11.334.166.39.221.055.166.055.555-.111.998Z" fill="#fff"/></symbol></svg>