<?xml version="1.0" encoding="utf-8"?><svg xmlns="http://www.w3.org/2000/svg" xmlns:xlink="http://www.w3.org/1999/xlink"><symbol fill="none" viewBox="0 0 24 24" id="marker" xmlns="http://www.w3.org/2000/svg"><g stroke="#A1A2A6" stroke-width="1.447" stroke-linecap="round" stroke-linejoin="round" clip-path="url(#aa)"><path d="M5.127 10.045v-.172a6.873 6.873 0 1 1 13.746 0v.172c0 3.461-4.382 8.671-6.148 10.631a.973.973 0 0 1-1.45 0c-1.766-1.96-6.148-7.17-6.148-10.631Z"/><path d="M10 9.955a2 2 0 1 0 4 0v-.037a2 2 0 1 0-4 0"/></g><defs><clipPath id="aa"><path fill="#fff" d="M0 0h24v24H0z"/></clipPath></defs></symbol><symbol fill="none" viewBox="0 0 31 31" id="telegram2" xmlns="http://www.w3.org/2000/svg"><circle cx="15.205" cy="15.24" r="15.205" fill="#2F89CE"/><path d="m7.109 15.525 3.496 1.303 1.362 4.385c.06.296.415.355.652.178l1.956-1.6c.177-.178.474-.178.71 0l3.496 2.548c.237.177.593.059.652-.237L22.04 9.659c.06-.296-.237-.593-.533-.474l-14.398 5.57c-.356.118-.356.651 0 .77Zm4.68.652 6.874-4.207c.118-.06.237.118.118.178l-5.628 5.273c-.178.178-.356.415-.356.71l-.178 1.423c0 .178-.296.237-.355 0l-.711-2.607c-.178-.296-.06-.652.237-.77Z" fill="#fff"/></symbol><symbol fill="none" viewBox="0 0 31 31" id="whatsapp2" xmlns="http://www.w3.org/2000/svg"><circle cx="15.419" cy="15.24" r="15.205" fill="#67C15F"/><path d="M21.446 9.206a7.928 7.928 0 0 0-5.619-2.329c-4.395 0-7.955 3.548-7.955 7.928a8.02 8.02 0 0 0 1.057 3.936l-1.113 4.102 4.228-1.109a8.134 8.134 0 0 0 3.783.943c4.395 0 7.955-3.548 7.955-7.928-.056-2.05-.834-4.046-2.336-5.543Zm-1.78 8.426c-.167.444-.946.887-1.336.942a3.122 3.122 0 0 1-1.223-.055c-.279-.11-.668-.222-1.113-.443-2.003-.832-3.282-2.828-3.393-2.994-.112-.11-.835-1.053-.835-2.051 0-.998.5-1.442.668-1.663.167-.222.39-.222.556-.222h.39c.11 0 .277-.055.444.333.167.388.557 1.386.612 1.441a.352.352 0 0 1 0 .333 1.16 1.16 0 0 1-.222.332c-.112.111-.223.277-.278.333-.112.11-.223.222-.112.388.112.222.501.831 1.113 1.386.779.665 1.39.887 1.613.998.223.11.334.055.445-.056.111-.11.5-.554.612-.776.111-.222.278-.166.445-.11.167.055 1.168.554 1.335.665.223.11.334.166.39.221.055.166.055.555-.111.998Z" fill="#fff"/></symbol></svg>