<?xml version="1.0" encoding="utf-8"?><svg xmlns="http://www.w3.org/2000/svg" xmlns:xlink="http://www.w3.org/1999/xlink"><symbol fill="none" viewBox="0 0 28 28" id="bar" xmlns="http://www.w3.org/2000/svg"><g clip-path="url(#aa)" stroke="#A1A2A6" stroke-width="1.5" stroke-linecap="round" stroke-linejoin="round"><path d="M9.334 15.167v4.666M14 8.167v11.666m4.666-8.166v8.166M5.833 3.5h16.334A2.333 2.333 0 0 1 24.5 5.833v16.334a2.333 2.333 0 0 1-2.333 2.333H5.833A2.333 2.333 0 0 1 3.5 22.167V5.833A2.333 2.333 0 0 1 5.833 3.5Z"/></g><defs><clipPath id="aa"><path fill="#fff" d="M0 0h28v28H0z"/></clipPath></defs></symbol><symbol fill="none" viewBox="0 0 22 24" id="basket" xmlns="http://www.w3.org/2000/svg"><g clip-path="url(#ba)" fill="#fff"><path d="M10.363 18.443a2.046 2.046 0 0 0-2.045 2.042 2.046 2.046 0 0 0 4.09 0 2.046 2.046 0 0 0-2.045-2.042Zm6.134 0a2.046 2.046 0 0 0-2.045 2.042 2.046 2.046 0 0 0 4.089 0 2.046 2.046 0 0 0-2.044-2.042Zm3.978-8.199L7.413 6.891a.614.614 0 0 0-.75.73L8.67 16.4h-.786L5.482 5.895a.613.613 0 0 0-.474-.464l-4.27-.882A.614.614 0 0 0 .489 5.75l3.885.802L6.797 17.15a.613.613 0 0 0 .598.477h12.07a.615.615 0 0 0 .607-.53l.858-6.175a.613.613 0 0 0-.455-.678Zm-8.14 3.91a.613.613 0 0 1-1.227 0v-2.696a.613.613 0 0 1 1.227 0v2.696Zm2.625 0a.613.613 0 0 1-1.227 0v-1.88a.613.613 0 0 1 1.227 0v1.88Zm2.625 0a.613.613 0 0 1-1.227 0v-1.226a.613.613 0 0 1 1.227 0v1.226Z"/></g><path fill-rule="evenodd" clip-rule="evenodd" d="M16.268 4.568a2.996 2.996 0 0 0-1.693-.523c-.627 0-1.21.193-1.693.523-.28-.843-.492-1.752-.492-2.383C12.39.98 13.37 0 14.575 0s2.185.98 2.185 2.185c0 .631-.212 1.54-.492 2.383Zm-4.722 2.274.024.006v-.011l-.024.005Zm4.972 1.217c-1.333-.33-2.766-.681-4.129-1.013a2.185 2.185 0 1 1 4.129 1.013Zm4.436 1.103c-.866-.217-2.155-.538-3.618-.9a2.995 2.995 0 0 0 .243-1.425c.87.18 1.762.45 2.308.765.596.344.969.928 1.067 1.56ZM9.869 6.439c-.36-.086-.706-.167-1.03-.243a2.19 2.19 0 0 1-.376-2.667 2.188 2.188 0 0 1 3.147-.7c.098.738.338 1.599.61 2.353a3.01 3.01 0 0 0-.449.774c-.628.113-1.305.278-1.902.483Zm10.124.075a3.43 3.43 0 0 1-.217.114c-.696-.295-1.587-.526-2.397-.672a3.01 3.01 0 0 0-.449-.774c.262-.727.494-1.553.599-2.273.095-.067.189-.128.278-.18a2.188 2.188 0 0 1 2.986.8 2.188 2.188 0 0 1-.8 2.985Z" fill="#fff"/><defs><clipPath id="ba"><path fill="#fff" transform="translate(0 3.064)" d="M0 0h20.936v20.936H0z"/></clipPath></defs></symbol><symbol fill="none" viewBox="0 0 28 28" id="cart" xmlns="http://www.w3.org/2000/svg"><g stroke="#E30611" stroke-width="1.5" stroke-linecap="round" stroke-linejoin="round"><path d="m24.575 23.081-3.098-14a1.166 1.166 0 0 0-1.138-.915H7.662c-.548 0-1.021.38-1.14.915l-3.097 14a1.167 1.167 0 0 0 1.14 1.419h18.871c.746 0 1.3-.69 1.139-1.419Z"/><path d="M16.916 8.167V5.25A2.916 2.916 0 0 0 14 2.333h-.001a2.916 2.916 0 0 0-2.917 2.917v2.917m10.105.396L17.664 24.5"/></g></symbol><symbol fill="none" viewBox="0 0 12 12" id="check" xmlns="http://www.w3.org/2000/svg"><path d="m10 3.25-5.5 5.5L2 6.25" stroke="#67C15F" stroke-width="1.5" stroke-miterlimit="10" stroke-linecap="round" stroke-linejoin="round"/></symbol><symbol fill="none" viewBox="0 0 24 24" id="chevron-left" xmlns="http://www.w3.org/2000/svg"><g clip-path="url(#ea)"><path d="M16.495 21 7.5 11.973 16.5 3" stroke="#A1A2A6" stroke-width="1.5" stroke-linecap="round" stroke-linejoin="round"/></g><defs><clipPath id="ea"><path fill="#fff" transform="rotate(-180 12 12)" d="M0 0h24v24H0z"/></clipPath></defs></symbol><symbol fill="none" viewBox="0 0 32 32" id="chevron-right" xmlns="http://www.w3.org/2000/svg"><g clip-path="url(#fa)"><path d="M10.007 4 22 16.036 10 28" stroke="#E30611" stroke-width="1.5" stroke-linecap="round" stroke-linejoin="round"/></g><defs><clipPath id="fa"><path fill="#fff" d="M0 0h32v32H0z"/></clipPath></defs></symbol><symbol fill="none" viewBox="0 0 31 31" id="fb" xmlns="http://www.w3.org/2000/svg"><circle cx="15.616" cy="15.205" r="15.205" fill="#2E6AE4"/><path fill-rule="evenodd" clip-rule="evenodd" d="M22.807 10.585v1.62h-6.21v2.154l2.396.037 2.396.037.038 1.519.039 1.518h-4.869v4.185h-3.375V12.07h-.724c-1.328 0-1.893.926-1.082 1.772l.353.37-.422 1.383c-.232.76-.449 1.41-.482 1.442-.122.122-1.376-.587-1.914-1.083-.801-.738-1.18-1.681-1.182-2.939-.002-1.538.474-2.41 1.808-3.314.981-.665 1.525-.717 7.594-.727l5.636-.009v1.62Z" fill="#fff"/></symbol><symbol fill="none" viewBox="0 0 28 28" id="heart" xmlns="http://www.w3.org/2000/svg"><g clip-path="url(#ha)"><path d="M18.312 4.667c3.704 0 6.188 3.476 6.188 6.714 0 6.572-10.312 11.952-10.5 11.952-.188 0-10.5-5.38-10.5-11.952 0-3.238 2.484-6.714 6.188-6.714 2.117 0 3.508 1.056 4.312 1.996.804-.94 2.195-1.996 4.312-1.996Z" stroke="#131721" stroke-width="1.5" stroke-linecap="round" stroke-linejoin="round"/></g><defs><clipPath id="ha"><path fill="#fff" d="M0 0h28v28H0z"/></clipPath></defs></symbol><symbol fill="none" viewBox="0 0 24 24" id="instagram" xmlns="http://www.w3.org/2000/svg"><path d="M11.999 7.377a4.624 4.624 0 1 0 0 9.248 4.624 4.624 0 0 0 0-9.248Zm0 7.627a3.004 3.004 0 1 1 0-6.008 3.004 3.004 0 0 1 0 6.008Zm4.807-6.719a1.078 1.078 0 1 0 0-2.156 1.078 1.078 0 0 0 0 2.156Z" fill="#000"/><path d="M20.533 6.11A4.605 4.605 0 0 0 17.9 3.48a6.607 6.607 0 0 0-2.186-.42c-.963-.042-1.268-.054-3.71-.054s-2.755 0-3.71.054a6.554 6.554 0 0 0-2.184.42 4.6 4.6 0 0 0-2.633 2.63 6.585 6.585 0 0 0-.419 2.186c-.043.962-.056 1.267-.056 3.71 0 2.442 0 2.753.056 3.71.015.748.156 1.486.419 2.187a4.61 4.61 0 0 0 2.634 2.632 6.583 6.583 0 0 0 2.185.45c.963.042 1.268.055 3.71.055s2.755 0 3.71-.055a6.616 6.616 0 0 0 2.186-.42 4.613 4.613 0 0 0 2.633-2.632c.263-.7.404-1.438.419-2.186.043-.962.056-1.267.056-3.71s0-2.753-.056-3.71a6.583 6.583 0 0 0-.421-2.217Zm-1.218 9.533a5.046 5.046 0 0 1-.311 1.688 2.987 2.987 0 0 1-1.712 1.71c-.535.2-1.1.305-1.67.312-.95.044-1.218.055-3.654.055-2.438 0-2.687 0-3.655-.055a4.961 4.961 0 0 1-1.67-.311 2.984 2.984 0 0 1-1.718-1.711 5.08 5.08 0 0 1-.311-1.67c-.043-.95-.053-1.217-.053-3.653 0-2.437 0-2.686.053-3.655a5.038 5.038 0 0 1 .311-1.687c.305-.79.93-1.41 1.719-1.712a5.01 5.01 0 0 1 1.669-.311c.95-.043 1.218-.055 3.655-.055s2.687 0 3.654.055a4.96 4.96 0 0 1 1.67.31 2.99 2.99 0 0 1 1.712 1.713 5.06 5.06 0 0 1 .311 1.669c.043.95.054 1.218.054 3.655 0 2.436 0 2.698-.043 3.654h-.011v-.001Z" fill="#000"/></symbol><symbol fill="none" viewBox="0 0 111 47" id="logo" xmlns="http://www.w3.org/2000/svg"><path d="M2.21 44.722v-.71a1.717 1.717 0 0 1-.754-.033 1.574 1.574 0 0 1-.64-.353 1.766 1.766 0 0 1-.441-.657 2.502 2.502 0 0 1-.163-.94c0-.361.054-.676.163-.945.108-.27.255-.492.442-.664a1.59 1.59 0 0 1 .64-.36c.24-.071.49-.084.752-.04v-.388h.735v.389a1.631 1.631 0 0 1 1.39.399c.188.172.337.393.445.664.11.27.166.584.166.944 0 .358-.055.672-.166.94a1.746 1.746 0 0 1-.445.658c-.187.17-.4.287-.64.353a1.7 1.7 0 0 1-.75.032v.71H2.21Zm0-1.397v-2.63a1.067 1.067 0 0 0-.556.043.897.897 0 0 0-.385.286 1.276 1.276 0 0 0-.226.453c-.05.172-.074.356-.074.551 0 .194.024.376.074.548.05.17.125.317.226.442a.88.88 0 0 0 .385.269c.158.056.343.07.555.038Zm.734 0c.212.031.396.018.552-.038a.88.88 0 0 0 .385-.27c.104-.122.18-.267.23-.434a1.9 1.9 0 0 0 0-1.082 1.317 1.317 0 0 0-.23-.459.903.903 0 0 0-.385-.297 1.002 1.002 0 0 0-.552-.05v2.63Zm2.711 1.397 1.655-5.09h1.063l1.655 5.09H9.26l-1.524-4.645h.191l-1.506 4.645h-.767Zm.86-1.15v-.692h2.657v.693H6.514Zm4.642 1.15v-5.09h3.319v.696h-2.58v1.227h1.318c.047 0 .107.002.18.007.076.002.146.008.212.017.276.033.508.123.697.269.19.146.334.331.43.555.1.224.15.469.15.735s-.049.512-.146.735a1.37 1.37 0 0 1-.43.555 1.384 1.384 0 0 1-.7.269 2.667 2.667 0 0 1-.393.025h-2.057Zm.739-.697h1.29a1.89 1.89 0 0 0 .321-.028c.229-.047.39-.155.481-.325a1.083 1.083 0 0 0 0-1.068c-.092-.17-.252-.278-.48-.325a1.892 1.892 0 0 0-.322-.028h-1.29v1.774Zm4.188.697v-5.09h2.057c.05 0 .11.002.184.007.073.002.142.01.208.021.283.045.519.141.707.29.191.148.334.336.428.562.094.226.141.476.141.75 0 .275-.047.526-.141.752a1.365 1.365 0 0 1-.428.562 1.5 1.5 0 0 1-.707.29 2.693 2.693 0 0 1-.392.028h-1.318v1.828h-.74Zm.739-2.528h1.29c.047 0 .099-.002.155-.007a1.17 1.17 0 0 0 .166-.024.725.725 0 0 0 .364-.195.856.856 0 0 0 .198-.332 1.189 1.189 0 0 0 0-.746.827.827 0 0 0-.198-.329.712.712 0 0 0-.364-.198.9.9 0 0 0-.166-.028 1.89 1.89 0 0 0-.155-.007h-1.29v1.866Zm8.193 2.528h-.75v-3.786l-2.506 3.786h-.75v-5.09h.75v3.782l2.506-3.782h.75v5.09Zm1.481 0v-5.09h.739v2.375l2.131-2.375h.92l-2.252 2.485 2.417 2.605h-.947l-2.27-2.432v2.432h-.738Zm4.594 0 1.655-5.09h1.064l1.654 5.09h-.767l-1.524-4.645h.191l-1.506 4.645h-.767Zm.86-1.15v-.692h2.657v.693H31.95Zm8.676 1.256c-.509 0-.942-.111-1.3-.333a2.189 2.189 0 0 1-.824-.933c-.189-.398-.283-.86-.283-1.385 0-.526.094-.988.283-1.386.19-.398.465-.708.824-.93.358-.223.791-.335 1.3-.335.507 0 .94.112 1.298.335.36.222.635.532.823.93.189.398.283.86.283 1.386 0 .525-.094.987-.283 1.385a2.16 2.16 0 0 1-.823.934c-.359.221-.791.332-1.298.332Zm0-.704c.36.005.66-.074.898-.236a1.5 1.5 0 0 0 .541-.686c.12-.295.18-.636.18-1.025 0-.39-.06-.728-.18-1.018-.12-.292-.3-.52-.54-.682-.239-.163-.538-.246-.899-.248-.36-.005-.66.074-.901.237a1.485 1.485 0 0 0-.537.686c-.12.294-.182.636-.184 1.025-.003.389.056.729.177 1.021.12.29.3.516.54.679.243.162.545.245.905.247Zm5.318.598v-.71a1.717 1.717 0 0 1-.753-.033 1.574 1.574 0 0 1-.64-.353 1.767 1.767 0 0 1-.441-.657 2.502 2.502 0 0 1-.163-.94c0-.361.054-.676.163-.945.108-.27.255-.492.442-.664a1.59 1.59 0 0 1 .64-.36c.24-.071.49-.084.752-.04v-.388h.735v.389a1.632 1.632 0 0 1 1.39.399c.188.172.337.393.445.664.11.27.166.584.166.944 0 .358-.055.672-.166.94a1.746 1.746 0 0 1-.445.658c-.187.17-.4.287-.64.353a1.7 1.7 0 0 1-.75.032v.71h-.735Zm0-1.397v-2.63a1.068 1.068 0 0 0-.555.043.897.897 0 0 0-.385.286 1.275 1.275 0 0 0-.226.453c-.05.172-.075.356-.075.551 0 .194.025.376.075.548.05.17.125.317.226.442a.88.88 0 0 0 .385.269c.158.056.343.07.555.038Zm.735 0c.212.031.396.018.552-.038a.88.88 0 0 0 .385-.27c.104-.122.18-.267.23-.434a1.9 1.9 0 0 0 0-1.082 1.317 1.317 0 0 0-.23-.459.902.902 0 0 0-.385-.297 1.002 1.002 0 0 0-.552-.05v2.63Zm7.208 1.397h-.75v-3.786l-2.506 3.786h-.75v-5.09h.75v3.782l2.506-3.782h.75v5.09Zm3.605.106c-.509 0-.942-.111-1.3-.333a2.189 2.189 0 0 1-.824-.933c-.188-.398-.283-.86-.283-1.385 0-.526.095-.988.283-1.386.19-.398.465-.708.824-.93.358-.223.791-.335 1.3-.335.587 0 1.073.148 1.457.445a2.3 2.3 0 0 1 .806 1.198l-.75.202a1.574 1.574 0 0 0-.53-.838c-.252-.203-.58-.304-.983-.304-.36 0-.66.081-.9.244a1.5 1.5 0 0 0-.545.682c-.12.292-.18.633-.18 1.022-.003.389.056.729.176 1.021a1.5 1.5 0 0 0 .545.682c.242.163.544.244.904.244.403 0 .73-.101.983-.304.255-.205.431-.484.53-.837l.75.201a2.3 2.3 0 0 1-.806 1.198c-.384.297-.87.446-1.457.446Zm3.535-.106v-5.09h.739v2.195h2.545v-2.195h.742v5.09h-.742v-2.199h-2.545v2.199h-.74Zm7.638.106c-.509 0-.942-.111-1.3-.333a2.19 2.19 0 0 1-.824-.933c-.189-.398-.283-.86-.283-1.385 0-.526.094-.988.283-1.386.19-.398.465-.708.823-.93.359-.223.792-.335 1.301-.335.507 0 .94.112 1.297.335.36.222.636.532.824.93.188.398.283.86.283 1.386 0 .525-.094.987-.283 1.385a2.16 2.16 0 0 1-.824.934c-.358.221-.79.332-1.297.332Zm0-.704c.36.005.66-.074.898-.236a1.5 1.5 0 0 0 .54-.686c.121-.295.181-.636.181-1.025 0-.39-.06-.728-.18-1.018a1.47 1.47 0 0 0-.541-.682c-.238-.163-.537-.246-.898-.248-.36-.005-.66.074-.901.237a1.485 1.485 0 0 0-.537.686c-.12.294-.182.636-.184 1.025-.003.389.056.729.177 1.021.12.29.3.516.54.679.243.162.545.245.905.247Zm3.604.598v-5.09h.75v3.782l2.505-3.782h.75v5.09h-.75v-3.786l-2.506 3.786h-.75Zm2.014-5.529a.977.977 0 0 1-.512-.137 1.056 1.056 0 0 1-.368-.368.977.977 0 0 1-.138-.513h.587c0 .118.043.22.128.304a.415.415 0 0 0 .303.128c.12 0 .222-.043.304-.128a.415.415 0 0 0 .128-.304h.587c0 .189-.046.36-.138.513a1.046 1.046 0 0 1-.372.367.97.97 0 0 1-.509.138Zm5.382 5.529v-5.09h.668l1.845 3.828 1.835-3.828h.675v5.086h-.7v-3.482l-1.644 3.486h-.335l-1.648-3.486v3.486h-.696Zm6.508 0v-5.09h3.252v.696h-2.513v1.428h2.089v.696h-2.09v1.573h2.514v.697h-3.252Zm4.596 0v-5.09h3.319v.696h-2.58v1.227h1.318c.047 0 .107.002.18.007.076.002.146.008.212.017.276.033.508.123.697.269.19.146.334.331.43.555.1.224.15.469.15.735s-.049.512-.146.735a1.37 1.37 0 0 1-.43.555 1.384 1.384 0 0 1-.7.269 2.67 2.67 0 0 1-.393.025H90.77Zm.739-.697h1.29a1.887 1.887 0 0 0 .321-.028c.229-.047.39-.155.481-.325a1.084 1.084 0 0 0 0-1.068c-.092-.17-.252-.278-.48-.325a1.89 1.89 0 0 0-.322-.028h-1.29v1.774Zm4.188.697v-5.09h3.252v.696h-2.513v1.428h2.089v.696h-2.09v1.573h2.514v.697h-3.252Zm4.242 0v-.633c.12.012.219.006.297-.018a.4.4 0 0 0 .201-.148.978.978 0 0 0 .138-.325c.04-.142.079-.324.117-.548.052-.285.095-.579.131-.88a33.896 33.896 0 0 0 .191-2.538h3.34v5.09h-.739v-4.394h-1.909c-.011.188-.026.4-.042.633-.017.233-.037.48-.06.742-.024.262-.053.531-.088.81-.033.278-.076.557-.128.837a5.06 5.06 0 0 1-.155.65 1.496 1.496 0 0 1-.248.485.743.743 0 0 1-.406.254c-.167.045-.381.04-.64-.017Zm9.907 0h-.75v-3.786l-2.506 3.786h-.749v-5.09h.749v3.782l2.506-3.782h.75v5.09Z" fill="#131721"/><path fill-rule="evenodd" clip-rule="evenodd" d="M47 14.722v20h-6v-20h6Z" fill="#E30611"/><path fill-rule="evenodd" clip-rule="evenodd" d="M27.094 1.722H0v33h6v-27h20.895c.896.07 2.167.41 3.172 1.256.919.774 1.933 2.23 1.933 5.244 0 1.962-.857 3.277-1.957 4.174-1.22.994-2.566 1.326-3.043 1.326H9.5v6h13.12l7.714 9h7.903l-8.195-9.561a12.575 12.575 0 0 0 3.79-2.114C36.108 21.194 38 18.26 38 14.222c0-4.587-1.652-7.798-4.067-9.832-2.297-1.935-4.978-2.552-6.746-2.662l-.093-.006Zm13.608 0 20.23 33.716L82.284 1.722h-7.102L61.069 24.006 47.7 1.722h-6.997Z" fill="#131721"/><path fill-rule="evenodd" clip-rule="evenodd" d="M41 1.722v.497l6 10V1.722h-6Z" fill="#E30611"/><path fill-rule="evenodd" clip-rule="evenodd" d="M110.8 34.722 90.08 0 68.033 34.722h7.107l14.78-23.279 4.94 8.279h-6.664l-3.81 6h14.055l5.371 9h6.987Z" fill="#131721"/></symbol><symbol fill="none" viewBox="0 0 24 24" id="mail" xmlns="http://www.w3.org/2000/svg"><g stroke="#A1A2A6" stroke-width="1.5" stroke-linecap="round" stroke-linejoin="round"><path d="M19 18.981H5a2 2 0 0 1-2-2V7.019a2 2 0 0 1 2-2h14a2 2 0 0 1 2 2v9.963a2 2 0 0 1-2 1.999Z"/><path d="m17 9-5 3-5-3"/></g></symbol><symbol fill="none" viewBox="0 0 24 24" id="marker" xmlns="http://www.w3.org/2000/svg"><g stroke="#A1A2A6" stroke-width="1.447" stroke-linecap="round" stroke-linejoin="round" clip-path="url(#la)"><path d="M5.127 10.045v-.172a6.873 6.873 0 1 1 13.746 0v.172c0 3.461-4.382 8.671-6.148 10.631a.973.973 0 0 1-1.45 0c-1.766-1.96-6.148-7.17-6.148-10.631Z"/><path d="M10 9.955a2 2 0 1 0 4 0v-.037a2 2 0 1 0-4 0"/></g><defs><clipPath id="la"><path fill="#fff" d="M0 0h24v24H0z"/></clipPath></defs></symbol><symbol fill="none" viewBox="0 0 31 30" id="ok" xmlns="http://www.w3.org/2000/svg"><path d="M.41 15c0-8.284 6.716-15 15-15 8.285 0 15 6.716 15 15 0 8.284-6.715 15-15 15-8.284 0-15-6.716-15-15Z" fill="#F68634"/><path d="m17.033 18.4 2.242 2.164a1.106 1.106 0 0 1 0 1.604 1.204 1.204 0 0 1-1.66 0L15.41 20.04l-2.202 2.127c-.23.221-.53.332-.831.332-.3 0-.601-.11-.83-.332a1.107 1.107 0 0 1-.001-1.604l2.242-2.164a7.672 7.672 0 0 1-2.329-.93 1.111 1.111 0 0 1-.367-1.564 1.197 1.197 0 0 1 1.619-.357 5.247 5.247 0 0 0 5.399 0 1.199 1.199 0 0 1 1.62.357c.346.53.18 1.23-.368 1.563a7.66 7.66 0 0 1-2.329.931Z" fill="#fff"/><path fill-rule="evenodd" clip-rule="evenodd" d="M11.39 11.371c0 2.134 1.799 3.87 4.01 3.87 2.212 0 4.01-1.736 4.01-3.87 0-2.135-1.798-3.871-4.01-3.871-2.211 0-4.01 1.736-4.01 3.871Zm5.67 0c0-.884-.744-1.602-1.66-1.602-.915 0-1.66.718-1.66 1.602 0 .883.745 1.602 1.66 1.602.916 0 1.66-.719 1.66-1.602Z" fill="#fff"/></symbol><symbol fill="none" viewBox="0 0 31 30" id="pinterest" xmlns="http://www.w3.org/2000/svg"><path d="M15.41 29.877c8.285 0 15-6.688 15-14.938S23.696 0 15.41 0c-8.284 0-15 6.688-15 14.938s6.716 14.939 15 14.939Z" fill="#fff"/><path d="M15.41 0c-8.283 0-15 6.689-15 14.938 0 6.332 3.951 11.742 9.532 13.919-.136-1.18-.247-3 .049-4.291.271-1.168 1.753-7.427 1.753-7.427s-.444-.897-.444-2.213c0-2.078 1.21-3.627 2.716-3.627 1.284 0 1.9.96 1.9 2.103 0 1.278-.814 3.196-1.246 4.98-.358 1.487.753 2.704 2.222 2.704 2.667 0 4.716-2.803 4.716-6.836 0-3.578-2.58-6.074-6.271-6.074-4.272 0-6.778 3.185-6.778 6.48 0 1.278.494 2.655 1.11 3.405a.443.443 0 0 1 .1.43c-.111.468-.37 1.489-.42 1.698-.062.27-.222.331-.506.196-1.877-.873-3.05-3.59-3.05-5.79 0-4.71 3.432-9.038 9.914-9.038 5.197 0 9.247 3.689 9.247 8.631 0 5.152-3.26 9.296-7.778 9.296-1.518 0-2.95-.787-3.432-1.722l-.938 3.554c-.334 1.303-1.247 2.926-1.864 3.922 1.407.43 2.888.664 4.444.664 8.284 0 15-6.689 15-14.939C30.411 6.69 23.695 0 15.411 0Z" fill="#E60019"/></symbol><symbol fill="none" viewBox="0 0 15 13" id="rateStar" xmlns="http://www.w3.org/2000/svg"><path d="m7.54 0 1.966 4.378 4.77.516-3.556 3.22.984 4.697-4.163-2.386-4.163 2.386.984-4.696L.806 4.894l4.77-.516L7.541 0Z" fill="#FED42B"/></symbol><symbol fill="none" viewBox="0 0 14 14" id="star" xmlns="http://www.w3.org/2000/svg"><path d="m7.082.459 1.965 4.378 4.77.516-3.556 3.22.984 4.697-4.163-2.386-4.163 2.386.984-4.696L.347 5.353l4.77-.516L7.082.459Z" fill="#FED42B"/></symbol><symbol fill="none" viewBox="0 0 28 28" id="stats" xmlns="http://www.w3.org/2000/svg"><g stroke="#131721" stroke-width="1.5" stroke-linecap="round" stroke-linejoin="round" clip-path="url(#qa)"><path d="M9.334 15.167v4.666M14 8.167v11.666m4.666-8.166v8.166M5.833 3.5h16.334A2.333 2.333 0 0 1 24.5 5.833v16.334a2.333 2.333 0 0 1-2.333 2.333H5.833A2.333 2.333 0 0 1 3.5 22.167V5.833A2.333 2.333 0 0 1 5.833 3.5Z"/></g><defs><clipPath id="qa"><path fill="#fff" d="M0 0h28v28H0z"/></clipPath></defs></symbol><symbol fill="none" viewBox="0 0 31 31" id="telegram" xmlns="http://www.w3.org/2000/svg"><circle cx="15.205" cy="15.24" r="15.205" fill="#2F89CE"/><path d="m7.109 15.525 3.496 1.303 1.362 4.385c.06.296.415.355.652.178l1.956-1.6c.177-.178.474-.178.71 0l3.496 2.548c.237.177.593.059.652-.237L22.04 9.659c.06-.296-.237-.593-.533-.474l-14.398 5.57c-.356.118-.356.651 0 .77Zm4.68.652 6.874-4.207c.118-.06.237.118.118.178l-5.628 5.273c-.178.178-.356.415-.356.71l-.178 1.423c0 .178-.296.237-.355 0l-.711-2.607c-.178-.296-.06-.652.237-.77Z" fill="#fff"/></symbol><symbol fill="none" viewBox="0 0 31 31" id="telegram2" xmlns="http://www.w3.org/2000/svg"><circle cx="15.205" cy="15.24" r="15.205" fill="#2F89CE"/><path d="m7.109 15.525 3.496 1.303 1.362 4.385c.06.296.415.355.652.178l1.956-1.6c.177-.178.474-.178.71 0l3.496 2.548c.237.177.593.059.652-.237L22.04 9.659c.06-.296-.237-.593-.533-.474l-14.398 5.57c-.356.118-.356.651 0 .77Zm4.68.652 6.874-4.207c.118-.06.237.118.118.178l-5.628 5.273c-.178.178-.356.415-.356.71l-.178 1.423c0 .178-.296.237-.355 0l-.711-2.607c-.178-.296-.06-.652.237-.77Z" fill="#fff"/></symbol><symbol fill="none" viewBox="0 0 28 28" id="user" xmlns="http://www.w3.org/2000/svg"><path d="M16.887 5.28a4.083 4.083 0 1 1-5.774 5.774 4.083 4.083 0 0 1 5.774-5.775ZM4.667 21.583v1.167c0 .644.522 1.167 1.166 1.167h16.334c.644 0 1.166-.523 1.166-1.167v-1.167c0-3.53-4.61-5.824-9.333-5.824s-9.333 2.294-9.333 5.824Z" stroke="#131721" stroke-width="1.5" stroke-linecap="round" stroke-linejoin="round"/></symbol><symbol fill="none" viewBox="0 0 16 16" id="viber" xmlns="http://www.w3.org/2000/svg"><path d="M8 1.335c-1.071.013-3.374.19-4.662 1.37-.958.948-1.292 2.35-1.331 4.084-.033 1.728-.072 4.973 3.058 5.856v1.346s-.02.538.337.648c.438.14.688-.275 1.105-.72l.778-.879c2.142.178 3.782-.232 3.97-.293.435-.139 2.883-.451 3.283-3.696.41-3.351-.2-5.463-1.301-6.418h-.007c-.332-.306-1.668-1.279-4.652-1.29 0 0-.222-.014-.578-.008Zm.037.942a7.02 7.02 0 0 1 .488.011c2.527.007 3.732.767 4.017 1.023.927.794 1.405 2.697 1.055 5.495-.332 2.713-2.317 2.885-2.685 3.002-.156.05-1.6.406-3.42.289 0 0-1.356 1.634-1.78 2.055-.067.074-.146.095-.196.085-.071-.018-.093-.107-.089-.229l.013-2.233c-2.655-.733-2.498-3.5-2.47-4.946.033-1.446.304-2.628 1.113-3.43 1.088-.982 3.043-1.115 3.953-1.122Zm.2 1.446a.166.166 0 1 0 0 .332 3.136 3.136 0 0 1 2.242.883c.606.588.9 1.378.912 2.411 0 .092.074.167.167.167V7.51a.167.167 0 0 0 .168-.165 3.588 3.588 0 0 0-1.009-2.646c-.66-.645-1.496-.977-2.48-.977Zm-2.198.382a.523.523 0 0 0-.342.067H5.69a2.61 2.61 0 0 0-.637.523 1.003 1.003 0 0 0-.256.525.71.71 0 0 0 .026.302l.01.006c.172.504.396.988.67 1.444a8.48 8.48 0 0 0 1.29 1.762l.015.022.024.017.015.018.017.015c.532.505 1.127.94 1.769 1.295.734.4 1.18.588 1.447.667v.004c.078.024.15.034.221.034.228-.016.444-.109.613-.262a2.53 2.53 0 0 0 .517-.638v-.004c.128-.241.085-.469-.1-.623-.37-.323-.77-.61-1.195-.857-.285-.155-.574-.061-.69.095l-.25.315c-.129.156-.361.134-.361.134l-.007.004C7.093 8.527 6.63 6.772 6.63 6.772s-.022-.239.139-.36l.312-.252c.15-.122.254-.41.094-.695a7.498 7.498 0 0 0-.856-1.194.475.475 0 0 0-.28-.167Zm2.486.495c-.221 0-.221.334.003.334A2.098 2.098 0 0 1 10 5.572 1.94 1.94 0 0 1 10.5 7a.168.168 0 0 0 .167.165l.007.009a.169.169 0 0 0 .167-.167c.015-.662-.191-1.218-.595-1.663C9.84 4.9 9.273 4.65 8.549 4.6h-.024Zm.274.898c-.228-.006-.236.335-.01.341.55.029.816.306.851.877a.166.166 0 0 0 .165.163h.007a.168.168 0 0 0 .16-.178c-.039-.744-.445-1.164-1.166-1.202H8.8Z" fill="#000"/></symbol><symbol fill="none" viewBox="0 0 31 31" id="vk" xmlns="http://www.w3.org/2000/svg"><circle cx="15.205" cy="15.205" r="15.205" fill="#3290FF"/><path d="M22.66 19.094c0-.063-.063-.063-.063-.126-.252-.505-.82-1.136-1.578-1.83-.379-.316-.568-.568-.694-.695-.19-.252-.19-.442-.127-.694.064-.19.316-.505.758-1.073.252-.316.379-.505.568-.694.947-1.263 1.389-2.083 1.262-2.462l-.063-.063c-.063-.063-.126-.126-.252-.126-.126-.063-.316-.063-.505 0h-2.841l-.063.063c-.063.063-.063.063-.063.126-.252.694-.568 1.262-.883 1.894-.19.315-.38.63-.569.883-.189.253-.315.442-.441.568-.127.127-.253.19-.316.316-.063.063-.19.126-.19.063-.062 0-.126 0-.126-.063l-.189-.19c-.063-.063-.063-.189-.126-.315V11.52c0-.063-.063-.19-.063-.252l-.19-.19c-.063-.063-.189-.063-.252-.126a5.663 5.663 0 0 0-1.136-.126c-1.01 0-1.705.063-1.957.189-.126.063-.252.126-.316.252-.126.127-.126.19-.063.19.316.063.568.19.695.379l.063.126c.063.063.063.19.126.379s.063.378.063.63v1.01c0 .316-.063.506-.063.695 0 .19-.063.316-.126.379-.063.126-.063.19-.127.19 0 0 0 .062-.063.062s-.126.063-.252.063a.479.479 0 0 1-.253-.126.761.761 0 0 1-.315-.316 2.204 2.204 0 0 1-.379-.568c-.126-.252-.316-.505-.442-.883l-.126-.253a8.952 8.952 0 0 1-.316-.694c-.126-.316-.252-.568-.378-.884a.871.871 0 0 0-.19-.252h-.063s-.063-.063-.126-.063-.126-.063-.19-.063H7.449c-.252 0-.378.063-.442.126l-.063.063v.126c0 .063 0 .126.063.253.316.757.695 1.514 1.074 2.272.378.694.757 1.325 1.01 1.767.315.442.568.884.883 1.263.316.378.505.63.568.757l.253.253.189.189c.126.126.316.316.568.505.253.19.568.379.884.568.315.19.694.316 1.073.442.442.126.82.19 1.2.126h.946a.57.57 0 0 0 .442-.19l.063-.062c0-.064.063-.064.063-.127v-.252c0-.253 0-.442.063-.631.063-.19.063-.316.126-.442s.127-.19.19-.253l.126-.126h.063c.126-.063.316 0 .442.126.19.127.379.316.505.505.126.19.315.379.568.631.252.253.442.442.568.505l.19.127c.126.063.252.126.441.189.19.063.316.063.442.063l2.146-.063c.19 0 .379-.063.505-.126s.19-.126.19-.253v-.252c-.127-.126-.127-.19-.127-.253Z" fill="#fff"/></symbol><symbol fill="none" viewBox="0 0 31 31" id="whatsapp" xmlns="http://www.w3.org/2000/svg"><circle cx="15.419" cy="15.24" r="15.205" fill="#67C15F"/><path d="M21.446 9.206a7.928 7.928 0 0 0-5.619-2.329c-4.395 0-7.955 3.548-7.955 7.928a8.02 8.02 0 0 0 1.057 3.936l-1.113 4.102 4.228-1.109a8.134 8.134 0 0 0 3.783.943c4.395 0 7.955-3.548 7.955-7.928-.056-2.05-.834-4.046-2.336-5.543Zm-1.78 8.426c-.167.444-.946.887-1.336.942a3.122 3.122 0 0 1-1.223-.055c-.279-.11-.668-.222-1.113-.443-2.003-.832-3.282-2.828-3.393-2.994-.112-.11-.835-1.053-.835-2.051 0-.998.5-1.442.668-1.663.167-.222.39-.222.556-.222h.39c.11 0 .277-.055.444.333.167.388.557 1.386.612 1.441a.352.352 0 0 1 0 .333 1.16 1.16 0 0 1-.222.332c-.112.111-.223.277-.278.333-.112.11-.223.222-.112.388.112.222.501.831 1.113 1.386.779.665 1.39.887 1.613.998.223.11.334.055.445-.056.111-.11.5-.554.612-.776.111-.222.278-.166.445-.11.167.055 1.168.554 1.335.665.223.11.334.166.39.221.055.166.055.555-.111.998Z" fill="#fff"/></symbol><symbol fill="none" viewBox="0 0 31 31" id="whatsapp2" xmlns="http://www.w3.org/2000/svg"><circle cx="15.419" cy="15.24" r="15.205" fill="#67C15F"/><path d="M21.446 9.206a7.928 7.928 0 0 0-5.619-2.329c-4.395 0-7.955 3.548-7.955 7.928a8.02 8.02 0 0 0 1.057 3.936l-1.113 4.102 4.228-1.109a8.134 8.134 0 0 0 3.783.943c4.395 0 7.955-3.548 7.955-7.928-.056-2.05-.834-4.046-2.336-5.543Zm-1.78 8.426c-.167.444-.946.887-1.336.942a3.122 3.122 0 0 1-1.223-.055c-.279-.11-.668-.222-1.113-.443-2.003-.832-3.282-2.828-3.393-2.994-.112-.11-.835-1.053-.835-2.051 0-.998.5-1.442.668-1.663.167-.222.39-.222.556-.222h.39c.11 0 .277-.055.444.333.167.388.557 1.386.612 1.441a.352.352 0 0 1 0 .333 1.16 1.16 0 0 1-.222.332c-.112.111-.223.277-.278.333-.112.11-.223.222-.112.388.112.222.501.831 1.113 1.386.779.665 1.39.887 1.613.998.223.11.334.055.445-.056.111-.11.5-.554.612-.776.111-.222.278-.166.445-.11.167.055 1.168.554 1.335.665.223.11.334.166.39.221.055.166.055.555-.111.998Z" fill="#fff"/></symbol></svg>