<svg width="24" height="24" viewBox="0 0 24 24" fill="none" xmlns="http://www.w3.org/2000/svg">
<g id="Fast Delivery" clip-path="url(#clip0_50_12371)">
<g id="Group">
<path id="Vector" d="M3 7H2" stroke="#A1A2A6" stroke-width="1.5" stroke-linecap="round" stroke-linejoin="round"/>
<path id="Vector_2" d="M4 4H2" stroke="#A1A2A6" stroke-width="1.5" stroke-linecap="round" stroke-linejoin="round"/>
<path id="Vector_3" d="M17 20H3" stroke="#A1A2A6" stroke-width="1.5" stroke-linecap="round" stroke-linejoin="round"/>
<path id="Vector_4" d="M17.2749 4L16.2889 7.287C16.1619 7.71 15.7719 8 15.3309 8H12.2189C11.5489 8 11.0689 7.354 11.2609 6.713L12.0749 4" stroke="#A1A2A6" stroke-width="1.5" stroke-linecap="round" stroke-linejoin="round"/>
<path id="Vector_5" d="M8 13H10.13" stroke="#A1A2A6" stroke-width="1.5" stroke-linecap="round" stroke-linejoin="round"/>
<path id="Vector_6" d="M17.4381 16H6.85005C5.24205 16 4.08905 14.45 4.55105 12.91L6.71105 5.71C7.01605 4.695 7.95005 4 9.01005 4H19.5991C21.2071 4 22.3601 5.55 21.8981 7.09L19.7381 14.29C19.4331 15.305 18.4981 16 17.4381 16Z" stroke="#A1A2A6" stroke-width="1.5" stroke-linecap="round" stroke-linejoin="round"/>
</g>
</g>
<defs>
<clipPath id="clip0_50_12371">
<rect width="24" height="24" fill="white"/>
</clipPath>
</defs>
</svg>
