<svg width="30" height="30" viewBox="0 0 30 30" fill="none" xmlns="http://www.w3.org/2000/svg">
<g id="Fast Delivery" clip-path="url(#clip0_48_7362)">
<g id="Group">
<path id="Vector" d="M3.75 8.75H2.5" stroke="#E30611" stroke-width="1.8" stroke-linecap="round" stroke-linejoin="round"/>
<path id="Vector_2" d="M5 5H2.5" stroke="#E30611" stroke-width="1.8" stroke-linecap="round" stroke-linejoin="round"/>
<path id="Vector_3" d="M21.25 25H3.75" stroke="#E30611" stroke-width="1.8" stroke-linecap="round" stroke-linejoin="round"/>
<path id="Vector_4" d="M21.5938 5L20.3613 9.10875C20.2025 9.6375 19.715 10 19.1638 10H15.2738C14.4363 10 13.8363 9.1925 14.0763 8.39125L15.0938 5" stroke="#E30611" stroke-width="1.8" stroke-linecap="round" stroke-linejoin="round"/>
<path id="Vector_5" d="M10 16.25H12.6625" stroke="#E30611" stroke-width="1.8" stroke-linecap="round" stroke-linejoin="round"/>
<path id="Vector_6" d="M21.7973 20H8.56232C6.55232 20 5.11107 18.0625 5.68857 16.1375L8.38857 7.1375C8.76982 5.86875 9.93732 5 11.2623 5H24.4986C26.5086 5 27.9498 6.9375 27.3723 8.8625L24.6723 17.8625C24.2911 19.1312 23.1223 20 21.7973 20Z" stroke="#E30611" stroke-width="1.8" stroke-linecap="round" stroke-linejoin="round"/>
</g>
</g>
<defs>
<clipPath id="clip0_48_7362">
<rect width="30" height="30" fill="white"/>
</clipPath>
</defs>
</svg>
