<svg width="31" height="31" viewBox="0 0 31 31" fill="none" xmlns="http://www.w3.org/2000/svg">
<g id="Group 142">
<g id="watsapp">
<circle id="Ellipse" cx="15.616" cy="15.2054" r="15.2054" fill="#2E6AE4"/>
</g>
<path id="Layer 6" fill-rule="evenodd" clip-rule="evenodd" d="M22.8068 10.5853V12.2053H19.7018H16.5968V13.2822V14.3591L18.9931 14.396L21.3893 14.4328L21.4275 15.9516L21.4657 17.4703H19.0313H16.5968V19.5628V21.6553H14.9093H13.2218V16.8628V12.0703H12.4976C11.17 12.0703 10.6049 12.996 11.4157 13.8423L11.7694 14.2116L11.3471 15.5945C11.1148 16.3551 10.8981 17.0042 10.8654 17.0368C10.743 17.1592 9.48895 16.4497 8.95084 15.9539C8.14988 15.2156 7.77081 14.273 7.76905 13.0153C7.76689 11.4773 8.24263 10.605 9.57684 9.70095C10.5584 9.0358 11.1025 8.98383 17.1706 8.97424L22.8068 8.96533V10.5853Z" fill="white"/>
</g>
</svg>
