<svg width="36" height="22" viewBox="0 0 36 22" fill="none" xmlns="http://www.w3.org/2000/svg">
<g id="Group 21">
<g id="Group 2">
<path id="Path" d="M23.1174 19.3544H13.4399V1.93506H23.1174V19.3544Z" fill="#6C6BBD"/>
<path id="Path_2" d="M14.1667 10.6454C14.1667 7.24993 15.7747 4.22538 18.2787 2.27623C16.4476 0.850923 14.1366 0.000203698 11.6251 0.000203698C5.67918 0.000203698 0.859375 4.76613 0.859375 10.6454C0.859375 16.5246 5.67918 21.2905 11.6251 21.2905C14.1366 21.2905 16.4476 20.4398 18.2787 19.0145C15.7747 17.0654 14.1667 14.0408 14.1667 10.6454" fill="#EB001B"/>
<path id="Path_3" d="M35.6982 10.6454C35.6982 16.5246 30.8785 21.2905 24.9329 21.2905C22.4215 21.2905 20.1106 20.4398 18.2788 19.0145C20.7834 17.0654 22.3913 14.0408 22.3913 10.6454C22.3913 7.24993 20.7834 4.22538 18.2788 2.27623C20.1106 0.850923 22.4215 0.000203698 24.9329 0.000203698C30.8785 0.000203698 35.6982 4.76613 35.6982 10.6454" fill="#0099DF"/>
</g>
</g>
</svg>
