<svg width="35" height="22" viewBox="0 0 35 22" fill="none" xmlns="http://www.w3.org/2000/svg">
<g id="Group 22">
<g id="Group 3">
<rect id="Rectangle" x="12.7295" y="2.30518" width="9.42033" height="16.9498" fill="#FF5F00"/>
<path id="_Path_" d="M13.3275 10.7816C13.324 7.47348 14.8404 4.34761 17.4396 2.30514C13.0254 -1.16805 6.68648 -0.662152 2.87763 3.46731C-0.931216 7.59676 -0.931216 13.9634 2.87763 18.0928C6.68648 22.2223 13.0254 22.7282 17.4396 19.255C14.8412 17.2132 13.3249 14.0886 13.3275 10.7816Z" fill="#EB001B"/>
<path id="Path" d="M34.8596 10.7817C34.8595 14.9087 32.5058 18.6733 28.7982 20.4768C25.0906 22.2802 20.6799 21.8058 17.4395 19.2552C20.0367 17.2116 21.5531 14.0875 21.5531 10.7802C21.5531 7.47304 20.0367 4.34888 17.4395 2.30533C20.6799 -0.24535 25.0906 -0.719695 28.7982 1.08375C32.5058 2.8872 34.8595 6.65181 34.8596 10.7788V10.7817Z" fill="#F79E1B"/>
</g>
</g>
</svg>
