<svg width="40" height="12" viewBox="0 0 40 12" fill="none" xmlns="http://www.w3.org/2000/svg">
<path d="M35.3893 0H27.9453C28.3789 2.45723 30.7639 4.76992 33.3657 4.76992H39.2919C39.3642 4.55311 39.3642 4.19174 39.3642 3.97493C39.3642 1.80679 37.5574 0 35.3893 0Z" fill="#1790CF"/>
<path d="M28.5957 5.20361V11.2021H32.2093V8.0222H35.3892C37.1237 8.0222 38.6414 6.79359 39.1473 5.20361H28.5957Z" fill="#4FAD50"/>
<path d="M15.877 0V11.1298H19.0569C19.0569 11.1298 19.8519 11.1298 20.2855 10.3348C22.4537 6.07081 23.1041 4.76992 23.1041 4.76992H23.5377V11.1298H27.1513V0H23.9714C23.9714 0 23.1764 0.0722759 22.7427 0.794991C20.936 4.48084 19.9242 6.35989 19.9242 6.35989H19.4905V0H15.877Z" fill="#4FAD50"/>
<path d="M0.699219 11.2021V0.0722656H4.31279C4.31279 0.0722656 5.3246 0.0722634 5.90277 1.66224C7.3482 5.85398 7.49275 6.43216 7.49275 6.43216C7.49275 6.43216 7.78183 5.42035 9.08271 1.66224C9.66088 0.0722634 10.6727 0.0722656 10.6727 0.0722656H14.2863V11.2021H10.6727V5.20354H10.2391L8.21547 11.2021H6.62549L4.6019 5.20354H4.16826V11.2021H0.699219Z" fill="#4FAD50"/>
</svg>
