<svg width="24" height="24" viewBox="0 0 24 24" fill="none" xmlns="http://www.w3.org/2000/svg">
<g clip-path="url(#clip0_82_9918)">
<path d="M2.58594 12.914L4.49994 11L6.52694 13.027" stroke="#E30611" stroke-width="1.5" stroke-linecap="round" stroke-linejoin="round"/>
<path d="M4.5 11V17" stroke="#E30611" stroke-width="1.5" stroke-linecap="round" stroke-linejoin="round"/>
<path d="M11.0857 2.58606L12.9997 4.50006L10.9727 6.52706" stroke="#E30611" stroke-width="1.5" stroke-linecap="round" stroke-linejoin="round"/>
<path d="M13 4.5H7" stroke="#E30611" stroke-width="1.5" stroke-linecap="round" stroke-linejoin="round"/>
<path d="M21.4137 11.086L19.4997 13L17.4727 10.973" stroke="#E30611" stroke-width="1.5" stroke-linecap="round" stroke-linejoin="round"/>
<path d="M19.5 13V7" stroke="#E30611" stroke-width="1.5" stroke-linecap="round" stroke-linejoin="round"/>
<path d="M12.914 21.414L11 19.5L13.027 17.473" stroke="#E30611" stroke-width="1.5" stroke-linecap="round" stroke-linejoin="round"/>
<path d="M11 19.5H17" stroke="#E30611" stroke-width="1.5" stroke-linecap="round" stroke-linejoin="round"/>
<path d="M2 4.5C2 3.119 3.119 2 4.5 2C5.881 2 7 3.119 7 4.5C7 5.881 5.881 7 4.5 7C3.119 7 2 5.881 2 4.5Z" stroke="#E30611" stroke-width="1.5" stroke-linecap="round" stroke-linejoin="round"/>
<path d="M19.5 2C20.881 2 22 3.119 22 4.5C22 5.881 20.881 7 19.5 7C18.119 7 17 5.881 17 4.5C17 3.119 18.119 2 19.5 2Z" stroke="#E30611" stroke-width="1.5" stroke-linecap="round" stroke-linejoin="round"/>
<path d="M22 19.5C22 20.881 20.881 22 19.5 22C18.119 22 17 20.881 17 19.5C17 18.119 18.119 17 19.5 17C20.881 17 22 18.119 22 19.5Z" stroke="#E30611" stroke-width="1.5" stroke-linecap="round" stroke-linejoin="round"/>
<path d="M4.5 22C3.119 22 2 20.881 2 19.5C2 18.119 3.119 17 4.5 17C5.881 17 7 18.119 7 19.5C7 20.881 5.881 22 4.5 22Z" stroke="#E30611" stroke-width="1.5" stroke-linecap="round" stroke-linejoin="round"/>
</g>
<defs>
<clipPath id="clip0_82_9918">
<rect width="24" height="24" fill="white"/>
</clipPath>
</defs>
</svg>
