<svg width="46" height="46" viewBox="0 0 46 46" fill="none" xmlns="http://www.w3.org/2000/svg">
<g id="Move, Copy, Objects" clip-path="url(#clip0_48_7674)">
<g id="Group">
<path id="Vector" d="M4.95654 24.7518L8.62504 21.0833L12.5101 24.9684" stroke="#E30611" stroke-width="2" stroke-linecap="round" stroke-linejoin="round"/>
<path id="Vector_2" d="M8.625 21.0833V32.5833" stroke="#E30611" stroke-width="2" stroke-linecap="round" stroke-linejoin="round"/>
<path id="Vector_3" d="M21.2483 4.9565L24.9168 8.625L21.0317 12.5101" stroke="#E30611" stroke-width="2" stroke-linecap="round" stroke-linejoin="round"/>
<path id="Vector_4" d="M24.917 8.625H13.417" stroke="#E30611" stroke-width="2" stroke-linecap="round" stroke-linejoin="round"/>
<path id="Vector_5" d="M41.0438 21.2482L37.3753 24.9167L33.4902 21.0316" stroke="#E30611" stroke-width="2" stroke-linecap="round" stroke-linejoin="round"/>
<path id="Vector_6" d="M37.375 24.9167V13.4167" stroke="#E30611" stroke-width="2" stroke-linecap="round" stroke-linejoin="round"/>
<path id="Vector_7" d="M24.752 41.0435L21.0835 37.375L24.9686 33.4899" stroke="#E30611" stroke-width="2" stroke-linecap="round" stroke-linejoin="round"/>
<path id="Vector_8" d="M21.0835 37.375H32.5835" stroke="#E30611" stroke-width="2" stroke-linecap="round" stroke-linejoin="round"/>
<path id="Vector_9" d="M3.8335 8.625C3.8335 5.97808 5.97825 3.83333 8.62516 3.83333C11.2721 3.83333 13.4168 5.97808 13.4168 8.625C13.4168 11.2719 11.2721 13.4167 8.62516 13.4167C5.97825 13.4167 3.8335 11.2719 3.8335 8.625Z" stroke="#E30611" stroke-width="2" stroke-linecap="round" stroke-linejoin="round"/>
<path id="Vector_10" d="M37.3752 3.83333C40.0221 3.83333 42.1668 5.97808 42.1668 8.625C42.1668 11.2719 40.0221 13.4167 37.3752 13.4167C34.7282 13.4167 32.5835 11.2719 32.5835 8.625C32.5835 5.97808 34.7282 3.83333 37.3752 3.83333Z" stroke="#E30611" stroke-width="2" stroke-linecap="round" stroke-linejoin="round"/>
<path id="Vector_11" d="M42.1668 37.375C42.1668 40.0219 40.0221 42.1667 37.3752 42.1667C34.7282 42.1667 32.5835 40.0219 32.5835 37.375C32.5835 34.7281 34.7282 32.5833 37.3752 32.5833C40.0221 32.5833 42.1668 34.7281 42.1668 37.375Z" stroke="#E30611" stroke-width="2" stroke-linecap="round" stroke-linejoin="round"/>
<path id="Vector_12" d="M8.62516 42.1667C5.97825 42.1667 3.8335 40.0219 3.8335 37.375C3.8335 34.7281 5.97825 32.5833 8.62516 32.5833C11.2721 32.5833 13.4168 34.7281 13.4168 37.375C13.4168 40.0219 11.2721 42.1667 8.62516 42.1667Z" stroke="#E30611" stroke-width="2" stroke-linecap="round" stroke-linejoin="round"/>
</g>
</g>
<defs>
<clipPath id="clip0_48_7674">
<rect width="46" height="46" fill="white"/>
</clipPath>
</defs>
</svg>
