<svg width="18" height="18" viewBox="0 0 18 18" fill="none" xmlns="http://www.w3.org/2000/svg">
<g id="Group">
<g id="Group_2">
<path id="Vector" d="M8.17516 9.82512C7.27516 8.92512 6.60013 7.9499 6.22513 6.9749C6.15013 6.7499 6.15014 6.52505 6.37514 6.37505L6.97513 5.7752C7.50013 5.2502 7.50016 4.57505 7.05016 4.12505L6.15015 3.2249C5.55015 2.6249 4.65016 2.6249 4.05016 3.2249L3.52515 3.75005C3.00015 4.27505 2.70013 5.09998 2.85013 5.92498C3.22513 7.87498 4.35013 10.0499 6.22513 11.8499C8.02513 13.6499 10.2002 14.8499 12.1502 15.2249C12.9752 15.3749 13.7252 15.15 14.3252 14.625L14.8501 14.0999C15.4501 13.4999 15.4501 12.6 14.8501 12L13.9502 11.0999C13.5002 10.6499 12.8251 10.6499 12.3751 11.0999L11.7002 11.7752C11.5502 11.9252 11.3251 12 11.1001 11.925C10.0501 11.4 9.07516 10.7251 8.17516 9.82512Z" stroke="#A1A2A6" stroke-width="1.5" stroke-miterlimit="10" stroke-linecap="round" stroke-linejoin="round"/>
</g>
</g>
</svg>
