<svg width="18" height="18" viewBox="0 0 18 18" fill="none" xmlns="http://www.w3.org/2000/svg">
<g id="Group 41">
<path id="Vector" d="M4.875 6C5.70343 6 6.375 5.32843 6.375 4.5C6.375 3.67157 5.70343 3 4.875 3C4.04657 3 3.375 3.67157 3.375 4.5C3.375 5.32843 4.04657 6 4.875 6Z" stroke="#969FA8" stroke-width="1.5" stroke-miterlimit="10" stroke-linecap="round" stroke-linejoin="round"/>
<path id="Vector_2" d="M9.15 13.5H6.45C5.325 13.5 4.5 12.525 4.5 11.25C4.5 9.975 5.4 9 6.45 9H11.475C12.6 9 13.425 8.025 13.425 6.75C13.425 5.475 12.525 4.5 11.475 4.5H8.4" stroke="#969FA8" stroke-width="1.5" stroke-miterlimit="10" stroke-linecap="round" stroke-linejoin="round"/>
<g id="Group">
<path id="Vector_3" d="M12.225 15.1503L14.4 13.8751C14.7 13.7251 14.7 13.3501 14.4 13.1251L12.225 11.85C11.925 11.7 11.625 11.85 11.625 12.225V14.7753C11.625 15.0753 12 15.3003 12.225 15.1503Z" stroke="#969FA8" stroke-width="1.5" stroke-linecap="round" stroke-linejoin="round"/>
</g>
</g>
</svg>
