<svg width="31" height="31" viewBox="0 0 31 31" fill="none" xmlns="http://www.w3.org/2000/svg">
<g id="Group 35">
<circle id="Ellipse" cx="15.2054" cy="15.2054" r="15.2054" fill="#3290FF"/>
<path id="Vector" d="M22.6602 19.0944C22.6602 19.0312 22.5971 19.0312 22.5971 18.9681C22.3446 18.4632 21.7765 17.832 21.0191 17.1377C20.6404 16.8221 20.451 16.5696 20.3247 16.4433C20.1354 16.1909 20.1354 16.0015 20.1985 15.749C20.2616 15.5597 20.5141 15.2441 20.9559 14.676C21.2084 14.3604 21.3347 14.171 21.524 13.9817C22.4708 12.7193 22.9127 11.8987 22.7864 11.52L22.7233 11.4569C22.6602 11.3938 22.5971 11.3306 22.4708 11.3306C22.3446 11.2675 22.1552 11.2675 21.9659 11.3306H19.5673C19.5042 11.3306 19.5042 11.3306 19.378 11.3306C19.3148 11.3306 19.2517 11.3306 19.2517 11.3306H19.1886H19.1255L19.0624 11.3938C18.9992 11.4569 18.9992 11.4569 18.9992 11.52C18.7468 12.2143 18.4312 12.7824 18.1156 13.4136C17.9262 13.7292 17.7368 14.0448 17.5475 14.2973C17.3581 14.5497 17.2319 14.7391 17.1056 14.8653C16.9794 14.9916 16.8532 15.0547 16.79 15.1809C16.7269 15.2441 16.6007 15.3072 16.6007 15.2441C16.5376 15.2441 16.4744 15.2441 16.4744 15.1809C16.4113 15.1178 16.3482 15.0547 16.2851 14.9916C16.222 14.9285 16.222 14.8022 16.1588 14.676C16.1588 14.5497 16.1588 14.4235 16.1588 14.3604C16.1588 14.2973 16.1588 14.1079 16.1588 13.9817C16.1588 13.7923 16.1588 13.6661 16.1588 13.6029C16.1588 13.4136 16.1588 13.1611 16.1588 12.9086C16.1588 12.6562 16.1588 12.4668 16.1588 12.3406C16.1588 12.2143 16.1588 12.025 16.1588 11.8987C16.1588 11.7094 16.1588 11.5831 16.1588 11.52C16.1588 11.4569 16.0957 11.3306 16.0957 11.2675C16.0326 11.2044 15.9695 11.1413 15.9064 11.0782C15.8432 11.015 15.717 11.015 15.6539 10.9519C15.3383 10.8888 14.9596 10.8257 14.5177 10.8257C13.5078 10.8257 12.8135 10.8888 12.561 11.015C12.4348 11.0782 12.3085 11.1413 12.2454 11.2675C12.1192 11.3938 12.1192 11.4569 12.1823 11.4569C12.4979 11.52 12.7504 11.6462 12.8766 11.8356L12.9397 11.9618C13.0029 12.025 13.0029 12.1512 13.066 12.3406C13.1291 12.5299 13.1291 12.7193 13.1291 12.9718C13.1291 13.3505 13.1291 13.7292 13.1291 13.9817C13.1291 14.2973 13.066 14.4866 13.066 14.676C13.066 14.8653 13.0029 14.9916 12.9397 15.0547C12.8766 15.1809 12.8766 15.2441 12.8135 15.2441C12.8135 15.2441 12.8135 15.3072 12.7504 15.3072C12.6873 15.3072 12.6241 15.3703 12.4979 15.3703C12.4348 15.3703 12.3085 15.3072 12.2454 15.2441C12.1192 15.1809 11.9929 15.0547 11.9298 14.9285C11.8036 14.8022 11.6773 14.6129 11.5511 14.3604C11.4249 14.1079 11.2355 13.8554 11.1093 13.4767L10.983 13.2242C10.9199 13.098 10.7937 12.8455 10.6674 12.5299C10.5412 12.2143 10.4149 11.9618 10.2887 11.6462C10.2256 11.52 10.1625 11.4569 10.0994 11.3938H10.0362C10.0362 11.3938 9.97311 11.3306 9.90999 11.3306C9.84687 11.3306 9.78375 11.2675 9.72063 11.2675H7.44832C7.19584 11.2675 7.0696 11.3306 7.00648 11.3938L6.94336 11.4569C6.94336 11.4569 6.94336 11.52 6.94336 11.5831C6.94336 11.6462 6.94336 11.7094 7.00648 11.8356C7.32208 12.593 7.7008 13.3505 8.07952 14.1079C8.45824 14.8022 8.83696 15.4334 9.08944 15.8753C9.40504 16.3171 9.65751 16.7589 9.97311 17.1377C10.2887 17.5164 10.4781 17.7689 10.5412 17.8951C10.6674 18.0213 10.7305 18.0844 10.7937 18.1476L10.983 18.3369C11.1093 18.4632 11.2986 18.6525 11.5511 18.8419C11.8036 19.0313 12.1192 19.2206 12.4348 19.41C12.7504 19.5993 13.1291 19.7256 13.5078 19.8518C13.9497 19.9781 14.3284 20.0412 14.7071 19.978H15.6539C15.8432 19.978 15.9695 19.9149 16.0957 19.7887L16.1588 19.7256C16.1588 19.6624 16.222 19.6624 16.222 19.5993C16.222 19.5362 16.222 19.4731 16.222 19.3469C16.222 19.0944 16.222 18.905 16.2851 18.7157C16.3482 18.5263 16.3482 18.4001 16.4113 18.2738C16.4745 18.1476 16.5376 18.0845 16.6007 18.0213C16.6638 17.9582 16.7269 17.8951 16.7269 17.8951H16.79C16.9163 17.832 17.1056 17.8951 17.2319 18.0213C17.4212 18.1476 17.6106 18.3369 17.7368 18.5263C17.8631 18.7157 18.0524 18.905 18.3049 19.1575C18.5574 19.41 18.7468 19.5993 18.873 19.6624L19.0624 19.7887C19.1886 19.8518 19.3148 19.9149 19.5042 19.978C19.6936 20.0412 19.8198 20.0412 19.946 20.0412L22.0921 19.978C22.2815 19.978 22.4708 19.9149 22.5971 19.8518C22.7233 19.7887 22.7864 19.7256 22.7864 19.5993C22.7864 19.5362 22.7864 19.41 22.7864 19.3469C22.6602 19.2206 22.6602 19.1575 22.6602 19.0944Z" fill="white"/>
</g>
</svg>
