<svg width="111" height="47" viewBox="0 0 111 47" fill="none" xmlns="http://www.w3.org/2000/svg">
<path d="M2.2092 44.7217V44.0112C1.94763 44.056 1.69666 44.0454 1.4563 43.9794C1.2183 43.9134 1.00504 43.7956 0.816519 43.6259C0.630357 43.4563 0.483077 43.2371 0.37468 42.9685C0.266282 42.6998 0.212083 42.3864 0.212083 42.0282C0.212083 41.6677 0.266282 41.3531 0.37468 41.0845C0.483077 40.8135 0.630357 40.592 0.816519 40.4199C1.00504 40.2479 1.2183 40.1277 1.4563 40.0594C1.69666 39.9887 1.94763 39.9757 2.2092 40.0205V39.6317H2.94442V40.0205C3.20598 39.9757 3.45577 39.9887 3.69378 40.0594C3.93414 40.1277 4.1474 40.2479 4.33356 40.4199C4.52208 40.592 4.67053 40.8135 4.77893 41.0845C4.88969 41.3531 4.94506 41.6677 4.94506 42.0282C4.94506 42.3864 4.88969 42.6998 4.77893 42.9685C4.67053 43.2371 4.52208 43.4563 4.33356 43.6259C4.1474 43.7956 3.93414 43.9134 3.69378 43.9794C3.45577 44.0454 3.20598 44.056 2.94442 44.0112V44.7217H2.2092ZM2.2092 43.3255V40.6956C1.99711 40.6627 1.81213 40.6768 1.65425 40.7381C1.49872 40.7993 1.37029 40.8948 1.26896 41.0244C1.16763 41.1516 1.09223 41.3024 1.04274 41.4768C0.993254 41.6488 0.968511 41.8326 0.968511 42.0282C0.968511 42.2215 0.993254 42.4041 1.04274 42.5761C1.09223 42.7458 1.16763 42.8931 1.26896 43.0179C1.37029 43.1405 1.49872 43.23 1.65425 43.2866C1.81213 43.3431 1.99711 43.3561 2.2092 43.3255ZM2.94442 43.3255C3.1565 43.3561 3.3403 43.3431 3.49583 43.2866C3.65136 43.23 3.77979 43.1405 3.88112 43.0179C3.9848 42.8954 4.06139 42.7505 4.11087 42.5832C4.16271 42.4135 4.18864 42.2344 4.18864 42.0459C4.18864 41.8574 4.16271 41.6759 4.11087 41.5016C4.06139 41.3272 3.9848 41.174 3.88112 41.042C3.77979 40.9077 3.65136 40.8088 3.49583 40.7451C3.3403 40.6791 3.1565 40.6627 2.94442 40.6956V43.3255ZM5.65526 44.7217L7.30951 39.6317H8.37346L10.0277 44.7217H9.26067L7.73721 40.0771H7.92809L6.4223 44.7217H5.65526ZM6.5142 43.5729V42.8801H9.1723V43.5729H6.5142ZM11.1567 44.7217V39.6317H14.4758V40.328H11.8955V41.5546H13.2139C13.261 41.5546 13.3211 41.5569 13.3942 41.5616C13.4696 41.564 13.5403 41.5699 13.6063 41.5793C13.882 41.6123 14.1141 41.7019 14.3026 41.848C14.4935 41.9941 14.6372 42.179 14.7338 42.4029C14.8328 42.6268 14.8823 42.8718 14.8823 43.1381C14.8823 43.4044 14.834 43.6495 14.7374 43.8733C14.6408 44.0972 14.497 44.2822 14.3061 44.4283C14.1176 44.5744 13.8843 44.6639 13.6063 44.6969C13.5403 44.7064 13.4708 44.7134 13.3977 44.7181C13.3247 44.7205 13.2634 44.7217 13.2139 44.7217H11.1567ZM11.8955 44.0253H13.1856C13.2328 44.0253 13.2846 44.023 13.3412 44.0183C13.4001 44.0136 13.4555 44.0065 13.5073 43.9971C13.7359 43.9499 13.8961 43.8415 13.988 43.6719C14.0823 43.5022 14.1294 43.3243 14.1294 43.1381C14.1294 42.9496 14.0823 42.7717 13.988 42.6044C13.8961 42.4347 13.7359 42.3263 13.5073 42.2792C13.4555 42.2674 13.4001 42.2603 13.3412 42.258C13.2846 42.2533 13.2328 42.2509 13.1856 42.2509H11.8955V44.0253ZM16.0838 44.7217V39.6317H18.141C18.1905 39.6317 18.2517 39.634 18.3248 39.6388C18.3978 39.6411 18.4673 39.6482 18.5333 39.66C18.8161 39.7047 19.0518 39.8014 19.2403 39.9498C19.4311 40.0983 19.5737 40.2856 19.668 40.5118C19.7622 40.7381 19.8094 40.9878 19.8094 41.2612C19.8094 41.5369 19.7622 41.7879 19.668 42.0141C19.5737 42.2403 19.4311 42.4277 19.2403 42.5761C19.0518 42.7246 18.8161 42.8212 18.5333 42.866C18.4673 42.8754 18.3967 42.8825 18.3212 42.8872C18.2482 42.8919 18.1881 42.8942 18.141 42.8942H16.8225V44.7217H16.0838ZM16.8225 42.1944H18.1127C18.1598 42.1944 18.2117 42.192 18.2682 42.1873C18.3271 42.1826 18.3825 42.1743 18.4344 42.1625C18.5852 42.1272 18.7065 42.0624 18.7984 41.9681C18.8903 41.8715 18.9563 41.7608 18.9964 41.6359C19.0364 41.511 19.0565 41.3861 19.0565 41.2612C19.0565 41.1363 19.0364 41.0126 18.9964 40.8901C18.9563 40.7652 18.8903 40.6556 18.7984 40.5613C18.7065 40.4647 18.5852 40.3987 18.4344 40.3634C18.3825 40.3492 18.3271 40.3398 18.2682 40.3351C18.2117 40.3304 18.1598 40.328 18.1127 40.328H16.8225V42.1944ZM25.0157 44.7217H24.2663V40.936L21.7602 44.7217H21.0108V39.6317H21.7602V43.4138L24.2663 39.6317H25.0157V44.7217ZM26.4971 44.7217V39.6317H27.2358V42.007L29.3673 39.6317H30.2863L28.0347 42.1166L30.4524 44.7217H29.5051L27.2358 42.2898V44.7217H26.4971ZM31.0914 44.7217L32.7456 39.6317H33.8096L35.4638 44.7217H34.6968L33.1733 40.0771H33.3642L31.8584 44.7217H31.0914ZM31.9503 43.5729V42.8801H34.6084V43.5729H31.9503ZM40.6273 44.8277C40.1183 44.8277 39.6847 44.717 39.3266 44.4955C38.9684 44.2716 38.6938 43.9605 38.503 43.5623C38.3144 43.164 38.2202 42.7022 38.2202 42.1767C38.2202 41.6512 38.3144 41.1893 38.503 40.7911C38.6938 40.3928 38.9684 40.083 39.3266 39.8614C39.6847 39.6376 40.1183 39.5257 40.6273 39.5257C41.134 39.5257 41.5664 39.6376 41.9246 39.8614C42.2851 40.083 42.5596 40.3928 42.7482 40.7911C42.9367 41.1893 43.0309 41.6512 43.0309 42.1767C43.0309 42.7022 42.9367 43.164 42.7482 43.5623C42.5596 43.9605 42.2851 44.2716 41.9246 44.4955C41.5664 44.717 41.134 44.8277 40.6273 44.8277ZM40.6273 44.1243C40.9879 44.129 41.2871 44.0501 41.5251 43.8875C41.7655 43.7225 41.9458 43.494 42.066 43.2018C42.1861 42.9072 42.2462 42.5655 42.2462 42.1767C42.2462 41.7879 42.1861 41.4485 42.066 41.1587C41.9458 40.8665 41.7655 40.6391 41.5251 40.4765C41.2871 40.3139 40.9879 40.2314 40.6273 40.2291C40.2668 40.2243 39.9663 40.3033 39.726 40.4659C39.488 40.6285 39.3089 40.8571 39.1887 41.1516C39.0685 41.4462 39.0073 41.7879 39.0049 42.1767C39.0025 42.5655 39.0615 42.906 39.1816 43.1982C39.3018 43.4881 39.4821 43.7143 39.7224 43.8769C39.9652 44.0395 40.2668 44.122 40.6273 44.1243ZM45.9452 44.7217V44.0112C45.6836 44.056 45.4327 44.0454 45.1923 43.9794C44.9543 43.9134 44.741 43.7956 44.5525 43.6259C44.3664 43.4563 44.2191 43.2371 44.1107 42.9685C44.0023 42.6998 43.9481 42.3864 43.9481 42.0282C43.9481 41.6677 44.0023 41.3531 44.1107 41.0845C44.2191 40.8135 44.3664 40.592 44.5525 40.4199C44.741 40.2479 44.9543 40.1277 45.1923 40.0594C45.4327 39.9887 45.6836 39.9757 45.9452 40.0205V39.6317H46.6804V40.0205C46.942 39.9757 47.1918 39.9887 47.4298 40.0594C47.6701 40.1277 47.8834 40.2479 48.0696 40.4199C48.2581 40.592 48.4065 40.8135 48.5149 41.0845C48.6257 41.3531 48.6811 41.6677 48.6811 42.0282C48.6811 42.3864 48.6257 42.6998 48.5149 42.9685C48.4065 43.2371 48.2581 43.4563 48.0696 43.6259C47.8834 43.7956 47.6701 43.9134 47.4298 43.9794C47.1918 44.0454 46.942 44.056 46.6804 44.0112V44.7217H45.9452ZM45.9452 43.3255V40.6956C45.7331 40.6627 45.5481 40.6768 45.3902 40.7381C45.2347 40.7993 45.1063 40.8948 45.005 41.0244C44.9036 41.1516 44.8282 41.3024 44.7787 41.4768C44.7293 41.6488 44.7045 41.8326 44.7045 42.0282C44.7045 42.2215 44.7293 42.4041 44.7787 42.5761C44.8282 42.7458 44.9036 42.8931 45.005 43.0179C45.1063 43.1405 45.2347 43.23 45.3902 43.2866C45.5481 43.3431 45.7331 43.3561 45.9452 43.3255ZM46.6804 43.3255C46.8925 43.3561 47.0763 43.3431 47.2318 43.2866C47.3874 43.23 47.5158 43.1405 47.6171 43.0179C47.7208 42.8954 47.7974 42.7505 47.8469 42.5832C47.8987 42.4135 47.9246 42.2344 47.9246 42.0459C47.9246 41.8574 47.8987 41.6759 47.8469 41.5016C47.7974 41.3272 47.7208 41.174 47.6171 41.042C47.5158 40.9077 47.3874 40.8088 47.2318 40.7451C47.0763 40.6791 46.8925 40.6627 46.6804 40.6956V43.3255ZM53.8876 44.7217H53.1383V40.936L50.6322 44.7217H49.8828V39.6317H50.6322V43.4138L53.1383 39.6317H53.8876V44.7217ZM57.4934 44.8277C56.9844 44.8277 56.5508 44.717 56.1927 44.4955C55.8345 44.2716 55.5599 43.9605 55.3691 43.5623C55.1806 43.164 55.0863 42.7022 55.0863 42.1767C55.0863 41.6512 55.1806 41.1893 55.3691 40.7911C55.5599 40.3928 55.8345 40.083 56.1927 39.8614C56.5508 39.6376 56.9844 39.5257 57.4934 39.5257C58.0802 39.5257 58.5656 39.6741 58.9497 39.971C59.3362 40.2679 59.6048 40.6674 59.7556 41.1693L59.0063 41.3708C58.9073 41.0149 58.7306 40.7357 58.4761 40.533C58.2239 40.3304 57.8964 40.2291 57.4934 40.2291C57.1329 40.2291 56.8324 40.3104 56.5921 40.473C56.3517 40.6356 56.1703 40.863 56.0477 41.1552C55.9276 41.4474 55.8675 41.7879 55.8675 42.1767C55.8651 42.5655 55.924 42.906 56.0442 43.1982C56.1667 43.4904 56.3482 43.7178 56.5885 43.8804C56.8313 44.043 57.1329 44.1243 57.4934 44.1243C57.8964 44.1243 58.2239 44.023 58.4761 43.8203C58.7306 43.6153 58.9073 43.3361 59.0063 42.9826L59.7556 43.1841C59.6048 43.686 59.3362 44.0854 58.9497 44.3823C58.5656 44.6793 58.0802 44.8277 57.4934 44.8277ZM61.0279 44.7217V39.6317H61.7667V41.8267H64.3117V39.6317H65.054V44.7217H64.3117V42.5231H61.7667V44.7217H61.0279ZM68.6662 44.8277C68.1572 44.8277 67.7236 44.717 67.3654 44.4955C67.0072 44.2716 66.7327 43.9605 66.5418 43.5623C66.3533 43.164 66.259 42.7022 66.259 42.1767C66.259 41.6512 66.3533 41.1893 66.5418 40.7911C66.7327 40.3928 67.0072 40.083 67.3654 39.8614C67.7236 39.6376 68.1572 39.5257 68.6662 39.5257C69.1728 39.5257 69.6052 39.6376 69.9634 39.8614C70.3239 40.083 70.5985 40.3928 70.787 40.7911C70.9755 41.1893 71.0698 41.6512 71.0698 42.1767C71.0698 42.7022 70.9755 43.164 70.787 43.5623C70.5985 43.9605 70.3239 44.2716 69.9634 44.4955C69.6052 44.717 69.1728 44.8277 68.6662 44.8277ZM68.6662 44.1243C69.0267 44.129 69.326 44.0501 69.564 43.8875C69.8043 43.7225 69.9846 43.494 70.1048 43.2018C70.225 42.9072 70.2851 42.5655 70.2851 42.1767C70.2851 41.7879 70.225 41.4485 70.1048 41.1587C69.9846 40.8665 69.8043 40.6391 69.564 40.4765C69.326 40.3139 69.0267 40.2314 68.6662 40.2291C68.3056 40.2243 68.0052 40.3033 67.7648 40.4659C67.5268 40.6285 67.3477 40.8571 67.2275 41.1516C67.1074 41.4462 67.0461 41.7879 67.0437 42.1767C67.0414 42.5655 67.1003 42.906 67.2205 43.1982C67.3406 43.4881 67.5209 43.7143 67.7613 43.8769C68.004 44.0395 68.3056 44.122 68.6662 44.1243ZM72.2697 44.7217V39.6317H73.0191V43.4138L75.5252 39.6317H76.2745V44.7217H75.5252V40.936L73.0191 44.7217H72.2697ZM74.2845 39.1934C74.096 39.1934 73.9251 39.1474 73.7719 39.0555C73.6188 38.9636 73.4962 38.8411 73.4043 38.6879C73.3124 38.5348 73.2665 38.3639 73.2665 38.1754H73.8532C73.8532 38.2932 73.8957 38.3945 73.9805 38.4794C74.0653 38.5642 74.1667 38.6066 74.2845 38.6066C74.4047 38.6066 74.506 38.5642 74.5885 38.4794C74.6733 38.3945 74.7157 38.2932 74.7157 38.1754H75.3025C75.3025 38.3639 75.2565 38.5348 75.1646 38.6879C75.0727 38.8411 74.949 38.9636 74.7935 39.0555C74.6403 39.1474 74.4706 39.1934 74.2845 39.1934ZM79.6661 44.7217V39.6317H80.3341L82.1793 43.4598L84.0138 39.6317H84.6889V44.7181H83.989V41.2365L82.3454 44.7217H82.0096L80.3624 41.2365V44.7217H79.6661ZM86.1741 44.7217V39.6317H89.426V40.328H86.9128V41.7561H89.0019V42.4524H86.9128V44.0253H89.426V44.7217H86.1741ZM90.7698 44.7217V39.6317H94.0889V40.328H91.5085V41.5546H92.827C92.8741 41.5546 92.9342 41.5569 93.0072 41.5616C93.0827 41.564 93.1533 41.5699 93.2193 41.5793C93.495 41.6123 93.7271 41.7019 93.9157 41.848C94.1065 41.9941 94.2503 42.179 94.3469 42.4029C94.4459 42.6268 94.4954 42.8718 94.4954 43.1381C94.4954 43.4044 94.447 43.6495 94.3504 43.8733C94.2538 44.0972 94.1101 44.2822 93.9192 44.4283C93.7307 44.5744 93.4974 44.6639 93.2193 44.6969C93.1533 44.7064 93.0838 44.7134 93.0108 44.7181C92.9377 44.7205 92.8765 44.7217 92.827 44.7217H90.7698ZM91.5085 44.0253H92.7987C92.8458 44.0253 92.8977 44.023 92.9542 44.0183C93.0131 44.0136 93.0685 44.0065 93.1204 43.9971C93.3489 43.9499 93.5092 43.8415 93.6011 43.6719C93.6953 43.5022 93.7425 43.3243 93.7425 43.1381C93.7425 42.9496 93.6953 42.7717 93.6011 42.6044C93.5092 42.4347 93.3489 42.3263 93.1204 42.2792C93.0685 42.2674 93.0131 42.2603 92.9542 42.258C92.8977 42.2533 92.8458 42.2509 92.7987 42.2509H91.5085V44.0253ZM95.6968 44.7217V39.6317H98.9488V40.328H96.4356V41.7561H98.5246V42.4524H96.4356V44.0253H98.9488V44.7217H95.6968ZM99.939 44.7217V44.089C100.059 44.1007 100.158 44.0949 100.236 44.0713C100.316 44.0454 100.383 43.9959 100.437 43.9228C100.492 43.8474 100.538 43.739 100.575 43.5976C100.615 43.4563 100.654 43.2736 100.692 43.0498C100.744 42.7646 100.787 42.4712 100.823 42.1696C100.858 41.868 100.888 41.5687 100.911 41.2718C100.937 40.9725 100.958 40.6839 100.975 40.4058C100.991 40.1277 101.004 39.8697 101.014 39.6317H104.354V44.7217H103.615V40.328H101.706C101.695 40.5165 101.68 40.7275 101.664 40.9607C101.647 41.194 101.627 41.4415 101.604 41.703C101.58 41.9646 101.551 42.2344 101.516 42.5125C101.483 42.7905 101.44 43.0698 101.388 43.3502C101.346 43.5906 101.294 43.8074 101.233 44.0006C101.171 44.1938 101.089 44.3552 100.985 44.4849C100.882 44.6121 100.746 44.6969 100.579 44.7394C100.412 44.7841 100.198 44.7782 99.939 44.7217ZM109.846 44.7217H109.096V40.936L106.59 44.7217H105.841V39.6317H106.59V43.4138L109.096 39.6317H109.846V44.7217Z" fill="#131721"/>
<path fill-rule="evenodd" clip-rule="evenodd" d="M47 14.7217V34.7217H41V14.7217H47Z" fill="#E30611"/>
<path fill-rule="evenodd" clip-rule="evenodd" d="M27.0937 1.72168H0V34.7217H6V7.72168H26.8953C27.7912 7.79261 29.0618 8.13156 30.0671 8.97847C30.9858 9.75248 32 11.2086 32 14.2217C32 16.1844 31.143 17.4993 30.0425 18.396C28.823 19.3896 27.4775 19.7217 27 19.7217H9.5V25.7217H22.6202L30.3345 34.7217H38.2369L30.0418 25.1607C31.3315 24.7146 32.6563 24.0058 33.8325 23.0474C36.107 21.1941 38 18.259 38 14.2217C38 9.63478 36.3476 6.42421 33.9329 4.38989C31.6361 2.45478 28.9547 1.83799 27.1871 1.72752L27.0937 1.72168Z" fill="#131721"/>
<path fill-rule="evenodd" clip-rule="evenodd" d="M40.7017 1.72168L60.9312 35.4376L82.2846 1.72168H75.1825L61.0693 24.0058L47.6988 1.72168H40.7017Z" fill="#131721"/>
<path fill-rule="evenodd" clip-rule="evenodd" d="M41 1.72168V2.21929L47 12.2193V1.72168H41Z" fill="#E30611"/>
<path fill-rule="evenodd" clip-rule="evenodd" d="M110.8 34.7216L90.0791 0L68.0337 34.7216H75.1409L89.9209 11.4431L94.8612 19.7216H88.1973L84.3878 25.7216H98.4419L103.813 34.7216H110.8Z" fill="#131721"/>
</svg>
