<svg width="40" height="12" viewBox="0 0 40 12" fill="none" xmlns="http://www.w3.org/2000/svg">
<g id="Group 20">
<g id="mir">
<path id="path10 2" d="M35.3888 0H27.9448C28.3785 2.45723 30.7634 4.76992 33.3652 4.76992H39.2915C39.3637 4.55311 39.3637 4.19174 39.3637 3.97493C39.3637 1.80679 37.5569 0 35.3888 0Z" fill="url(#paint0_linear_0_1552)"/>
<path id="path12 3" d="M28.5952 5.20349V11.202H32.2088V8.02207H35.3887C37.1232 8.02207 38.641 6.79346 39.1469 5.20349H28.5952Z" fill="#4FAD50"/>
<path id="path14 2" d="M15.875 0V11.1298H19.055C19.055 11.1298 19.8499 11.1298 20.2836 10.3348C22.4517 6.07081 23.1021 4.76992 23.1021 4.76992H23.5358V11.1298H27.1494V0H23.9694C23.9694 0 23.1744 0.0722759 22.7408 0.794991C20.934 4.48084 19.9222 6.35989 19.9222 6.35989H19.4886V0H15.875Z" fill="#4FAD50"/>
<path id="path16 2" d="M0.698242 11.2021V0.0722656H4.31182C4.31182 0.0722656 5.32362 0.0722634 5.9018 1.66224C7.34723 5.85398 7.49178 6.43216 7.49178 6.43216C7.49178 6.43216 7.78085 5.42035 9.08174 1.66224C9.65991 0.0722634 10.6717 0.0722656 10.6717 0.0722656H14.2853V11.2021H10.6717V5.20354H10.2381L8.21449 11.2021H6.62451L4.60092 5.20354H4.16729V11.2021H0.698242Z" fill="#4FAD50"/>
</g>
</g>
<defs>
<linearGradient id="paint0_linear_0_1552" x1="27.932" y1="2.41914" x2="39.3381" y2="2.41914" gradientUnits="userSpaceOnUse">
<stop stop-color="#27B1E6"/>
<stop offset="1" stop-color="#148ACA"/>
</linearGradient>
</defs>
</svg>
