<svg width="31" height="30" viewBox="0 0 31 30" fill="none" xmlns="http://www.w3.org/2000/svg">
<g id="OK">
<g id="OK_2">
<path id="back" d="M0.410645 15C0.410645 6.71573 7.12637 0 15.4106 0C23.6949 0 30.4106 6.71573 30.4106 15C30.4106 23.2843 23.6949 30 15.4106 30C7.12637 30 0.410645 23.2843 0.410645 15Z" fill="#F68634"/>
<path id="Shape" d="M17.0331 18.4002L19.2748 20.5643C19.734 21.0067 19.734 21.7251 19.2748 22.1679C18.816 22.6108 18.0725 22.6108 17.6142 22.1679L15.4102 20.0414L13.2082 22.1679C12.9785 22.3891 12.6777 22.4998 12.3768 22.4998C12.0764 22.4998 11.776 22.3891 11.5464 22.1679C11.0877 21.7251 11.0877 21.0072 11.5459 20.5643L13.7878 18.4002C12.9716 18.2208 12.1844 17.9086 11.4593 17.4694C10.9106 17.1355 10.7458 16.4358 11.0915 15.9057C11.4363 15.3748 12.1613 15.215 12.711 15.549C14.3526 16.5458 16.4674 16.546 18.1099 15.549C18.6596 15.215 19.3844 15.3748 19.7299 15.9057C20.0757 16.4353 19.9104 17.1355 19.3616 17.4694C18.6366 17.909 17.8494 18.2208 17.0331 18.4002Z" fill="white"/>
<path id="Combined Shape" fill-rule="evenodd" clip-rule="evenodd" d="M11.3901 11.371C11.3901 13.505 13.1887 15.2408 15.4001 15.2408C17.612 15.2408 19.41 13.505 19.41 11.371C19.41 9.23632 17.612 7.5 15.4001 7.5C13.1887 7.5 11.3901 9.23632 11.3901 11.371ZM17.0604 11.371C17.0604 10.4872 16.3157 9.76854 15.4001 9.76854C14.4852 9.76854 13.7398 10.4872 13.7398 11.371C13.7398 12.2541 14.4852 12.9732 15.4001 12.9732C16.3157 12.9732 17.0604 12.2541 17.0604 11.371Z" fill="white"/>
</g>
</g>
</svg>
