<svg width="31" height="30" viewBox="0 0 31 30" fill="none" xmlns="http://www.w3.org/2000/svg">
<g id="Pinterest">
<g id="Pinterest_2">
<path id="Oval" d="M15.4106 29.877C23.6949 29.877 30.4106 23.1888 30.4106 14.9385C30.4106 6.68821 23.6949 0 15.4106 0C7.12637 0 0.410645 6.68821 0.410645 14.9385C0.410645 23.1888 7.12637 29.877 15.4106 29.877Z" fill="white"/>
<path id="Shape" d="M15.4106 0C7.12669 0 0.410645 6.68853 0.410645 14.9385C0.410645 21.2705 4.36126 26.6803 9.94151 28.8566C9.80571 27.6762 9.6946 25.8566 9.99089 24.5656C10.2625 23.3975 11.744 17.1393 11.744 17.1393C11.744 17.1393 11.2995 16.2418 11.2995 14.9262C11.2995 12.8484 12.5094 11.2992 14.0156 11.2992C15.2995 11.2992 15.9168 12.2582 15.9168 13.4016C15.9168 14.6803 15.102 16.5984 14.6699 18.3811C14.3119 19.8689 15.423 21.0861 16.8921 21.0861C19.5588 21.0861 21.6082 18.2828 21.6082 14.25C21.6082 10.6721 19.0279 8.17623 15.3366 8.17623C11.065 8.17623 8.55879 11.3607 8.55879 14.6557C8.55879 15.9344 9.05262 17.3115 9.6699 18.0615C9.79336 18.209 9.80571 18.3443 9.76867 18.4918C9.65756 18.959 9.3983 19.9795 9.34892 20.1885C9.28719 20.459 9.12669 20.5205 8.84274 20.3852C6.9662 19.5123 5.79336 16.7951 5.79336 14.5943C5.79336 9.88525 9.22546 5.55738 15.7069 5.55738C20.9045 5.55738 24.9539 9.2459 24.9539 14.1885C24.9539 19.3402 21.6946 23.4836 17.1761 23.4836C15.6576 23.4836 14.2255 22.6967 13.744 21.7623C13.744 21.7623 12.9909 24.6148 12.8057 25.3156C12.4724 26.6189 11.5588 28.2418 10.9415 29.2377C12.3489 29.668 13.8304 29.9016 15.386 29.9016C23.6699 29.9016 30.386 23.2131 30.386 14.9631C30.4106 6.68852 23.6946 0 15.4106 0Z" fill="#E60019"/>
</g>
</g>
</svg>
