<svg width="24" height="24" viewBox="0 0 24 24" fill="none" xmlns="http://www.w3.org/2000/svg">
<g id="Group 17">
<g id="qiwi">
<path id="Vector" d="M18.7252 14.6681C19.1126 14.8341 19.2787 15.3876 19.2787 15.6644C19.3341 16.1072 19.2233 16.3286 19.0573 16.3286C18.8912 16.3286 18.6698 16.1626 18.4484 15.7751C18.227 15.3876 18.1163 15.0002 18.227 14.7788C18.3931 14.6681 18.5591 14.6127 18.7252 14.6681Z" fill="#F28A1A"/>
<path id="Vector_2" d="M16.456 16.3838C16.6774 16.3838 16.9542 16.4945 17.2309 16.7159C17.6737 17.1034 17.8398 17.5462 17.6184 17.8783C17.5077 18.0443 17.2309 18.155 17.0095 18.155C16.7328 18.155 16.456 18.0443 16.2899 17.8783C15.8471 17.4908 15.7364 16.9373 16.0132 16.6052C16.0685 16.4945 16.2346 16.3838 16.456 16.3838Z" fill="#F28A1A"/>
<path id="Vector_3" d="M11.1976 20.7568C5.44102 20.7568 0.791504 16.1073 0.791504 10.4061C0.791504 4.70487 5.44102 0 11.1976 0C16.9541 0 21.6036 4.64952 21.6036 10.4061C21.6036 12.3434 21.0501 14.17 20.1645 15.7198C20.1091 15.7751 20.0538 15.7751 20.0538 15.6644C19.6663 13.1183 18.1165 11.7345 15.9024 11.2917C15.681 11.2363 15.681 11.1256 15.9578 11.1256C16.6774 11.0703 17.6183 11.0703 18.1718 11.181C18.2272 10.9042 18.2272 10.6275 18.2272 10.4061C18.2272 6.64217 15.1275 3.54249 11.3636 3.54249C7.59973 3.54249 4.50005 6.64217 4.50005 10.4061C4.50005 14.17 7.59973 17.2696 11.3636 17.2696H11.6957C11.585 16.6608 11.5297 16.0519 11.585 15.3877C11.585 14.9449 11.6957 14.8895 11.8618 15.2216C12.8028 16.8822 14.1865 18.3213 16.8434 18.9302C19.0021 19.4283 21.1608 19.9819 23.5409 22.9155C23.7623 23.1922 23.4302 23.469 23.2088 23.2476C20.8287 21.1442 18.67 20.4247 16.6774 20.4247C14.1865 20.48 12.6921 20.7568 11.1976 20.7568Z" fill="#F28A1A"/>
</g>
</g>
</svg>
