<svg width="31" height="31" viewBox="0 0 31 31" fill="none" xmlns="http://www.w3.org/2000/svg">
<g id="telegramm">
<circle id="Ellipse" cx="15.2054" cy="15.24" r="15.2054" fill="#2F89CE"/>
<path id="Vector" d="M7.10891 15.5248L10.6047 16.8283L11.9675 21.2128C12.0267 21.5091 12.3822 21.5683 12.6192 21.3906L14.5745 19.7908C14.7522 19.613 15.0485 19.613 15.2855 19.7908L18.7813 22.3386C19.0183 22.5163 19.3738 22.3978 19.433 22.1016L22.04 9.65896C22.0993 9.36271 21.803 9.06646 21.5068 9.18496L7.10891 14.7545C6.75341 14.873 6.75341 15.4063 7.10891 15.5248ZM11.7897 16.1765L18.6628 11.9697C18.7813 11.9105 18.8998 12.0882 18.7813 12.1475L13.1525 17.4208C12.9747 17.5985 12.797 17.8355 12.797 18.1318L12.6192 19.5538C12.6192 19.7315 12.323 19.7908 12.2637 19.5538L11.5527 16.9468C11.3749 16.6505 11.4935 16.295 11.7897 16.1765Z" fill="white"/>
</g>
</svg>
