<svg width="22" height="20" viewBox="0 0 22 20" fill="none" xmlns="http://www.w3.org/2000/svg">
<g id="Group 19">
<g id="yandex">
<path id="yandex_2" d="M21.5075 8.09778C21.3968 7.43357 20.7879 6.99075 19.9577 6.99075C19.6809 6.99075 19.4595 6.99075 19.1828 6.99075C18.6846 6.9354 18.5739 7.10146 18.5739 7.48892C18.5739 9.42622 18.5739 11.3082 18.5739 13.2455C18.5739 14.2418 17.5776 15.2935 16.4152 15.5149C12.762 16.3451 9.10879 17.1201 5.4556 17.9503C5.06814 18.061 4.62534 18.061 4.18252 18.061C4.01647 18.061 3.73972 17.9503 3.68436 17.7843C3.62901 17.6736 3.79506 17.4522 3.90577 17.3415C4.07182 17.2308 4.29323 17.1201 4.51464 17.0094C5.17885 16.788 5.89841 16.5666 6.56263 16.3451C9.27485 15.4595 11.9871 14.5739 14.6993 13.6329C15.917 13.2455 16.5812 12.4152 16.5812 11.3635C16.6366 8.04244 16.5812 4.666 16.5812 1.34491C16.5812 0.7914 16.3045 0.34859 15.6956 0.127185C14.976 -0.149572 14.3118 0.0718299 13.703 0.348587C9.82836 2.17518 6.00911 4.00178 2.13452 5.82838C1.02749 6.38189 0.363281 7.15681 0.363281 8.26384C0.363281 11.4189 0.363281 14.5739 0.363281 17.7289C0.363281 17.895 0.363268 18.061 0.418619 18.1717C0.806079 19.2234 1.80242 19.8876 3.13085 19.8876C5.84307 19.8876 8.55528 19.8876 11.2675 19.8876C13.9797 19.8876 16.6366 19.8876 19.3488 19.8876C19.9577 19.8876 20.4558 19.7769 20.8986 19.3895C21.4521 18.9467 21.4521 18.3378 21.4521 17.7843C21.4521 14.6846 21.4521 11.6403 21.4521 8.54059C21.5629 8.48524 21.5629 8.26384 21.5075 8.09778ZM10.2158 7.10146C10.4926 6.3819 11.1015 5.93908 11.9871 5.82838C12.5959 5.77303 13.0941 6.10514 13.2048 6.65865C13.3155 7.48892 12.3192 8.48525 11.2675 8.48525C10.4372 8.48525 9.93907 7.87638 10.2158 7.10146Z" fill="#E47418"/>
</g>
</g>
</svg>
