<svg width="24" height="23" viewBox="0 0 24 23" fill="none" xmlns="http://www.w3.org/2000/svg">
<g id="Group 18">
<g id="webmoney">
<g id="Vector">
<path d="M15.2674 11.0149L12.7766 8.30271L10.009 10.7382L12.4998 13.5057L15.2674 11.0149Z" fill="#137ABE"/>
<path d="M8.01638 6.08865L10.5072 8.80087L13.2748 6.36541L10.784 3.65319L8.01638 6.08865Z" fill="#137ABE"/>
<path d="M17.2047 15.7198L14.7139 13.0076L11.9463 15.4984L14.4371 18.2106L17.2047 15.7198Z" fill="#137ABE"/>
<path d="M14.3264 20.2586L9.78763 15.2216L11.0607 14.1146L7.85033 10.5721L9.12341 9.46509L5.91303 5.9226L10.95 1.43914L12.5552 3.15503L15.3228 0.77492L16.928 2.43546L17.9796 1.49449C17.7582 1.38378 17.4815 1.21773 17.2601 1.10703C15.6549 0.442811 13.939 0 12.1124 0C5.74698 0 0.543945 5.14768 0.543945 11.4577C0.543945 17.7678 5.74698 22.9155 12.1677 22.9155C14.2711 22.9155 16.2084 22.362 17.8689 21.421C18.4224 21.0889 18.9206 20.7568 19.4188 20.4247L17.094 17.8231L14.3264 20.2586Z" fill="#137ABE"/>
<path d="M13.1087 4.76022L14.9353 6.80822L17.0387 4.98163L15.1567 2.93362L13.1087 4.76022Z" fill="#137ABE"/>
<path d="M18.9206 9.07763L17.0387 7.02963L14.9907 8.91157L16.8726 10.9042L18.9206 9.07763Z" fill="#137ABE"/>
<path d="M20.6919 13.395L18.8099 11.347L16.7619 13.1736L18.6439 15.277L20.6919 13.395Z" fill="#137ABE"/>
<path d="M20.8026 6.64217L19.4188 7.8599L20.6919 9.24368L22.0203 8.02595L20.8026 6.64217Z" fill="#137ABE"/>
<path d="M21.19 11.9005L22.4077 13.2843L23.7915 12.0666L22.5184 10.6828L21.19 11.9005Z" fill="#137ABE"/>
<path d="M17.6475 3.81925L18.9206 5.20303L20.249 3.9853L19.0313 2.60152L17.6475 3.81925Z" fill="#137ABE"/>
<path d="M18.5885 17.325L20.4704 19.373L22.5184 17.5464L20.6365 15.4984L18.5885 17.325Z" fill="#137ABE"/>
</g>
</g>
</g>
</svg>
