<svg width="31" height="31" viewBox="0 0 31 31" fill="none" xmlns="http://www.w3.org/2000/svg">
<g id="watsapp">
<circle id="Ellipse" cx="15.4192" cy="15.24" r="15.2054" fill="#67C15F"/>
<path id="Vector" d="M21.4456 9.20576C19.9436 7.70899 17.941 6.87744 15.827 6.87744C11.4323 6.87744 7.87203 10.4254 7.87203 14.8048C7.87203 16.1907 8.26144 17.5766 8.929 18.7408L7.81641 22.8431L12.0442 21.7344C13.2125 22.3442 14.4919 22.6768 15.827 22.6768C20.2218 22.6768 23.7821 19.1289 23.7821 14.7494C23.7264 12.6983 22.9476 10.7025 21.4456 9.20576ZM19.6655 17.6321C19.4986 18.0756 18.7198 18.5191 18.3304 18.5745C17.9966 18.6299 17.5516 18.6299 17.1065 18.5191C16.8284 18.4082 16.439 18.2973 15.9939 18.0756C13.9913 17.244 12.7118 15.2483 12.6005 15.082C12.4893 14.9711 11.7661 14.0287 11.7661 13.0309C11.7661 12.033 12.2668 11.5895 12.4336 11.3678C12.6005 11.146 12.8231 11.146 12.9899 11.146C13.1012 11.146 13.2681 11.146 13.3793 11.146C13.4906 11.146 13.6575 11.0906 13.8244 11.4787C13.9913 11.8667 14.3807 12.8646 14.4363 12.92C14.4919 13.0309 14.4919 13.1417 14.4363 13.2526C14.3807 13.3635 14.325 13.4744 14.2138 13.5852C14.1025 13.6961 13.9913 13.8624 13.9356 13.9178C13.8244 14.0287 13.7131 14.1396 13.8244 14.3059C13.9356 14.5276 14.3251 15.1374 14.937 15.6918C15.7158 16.357 16.3277 16.5788 16.5502 16.6897C16.7727 16.8005 16.884 16.7451 16.9953 16.6342C17.1065 16.5234 17.4959 16.0799 17.6072 15.8581C17.7184 15.6364 17.8853 15.6918 18.0522 15.7472C18.2191 15.8027 19.2204 16.3016 19.3873 16.4125C19.6098 16.5234 19.7211 16.5788 19.7767 16.6342C19.8324 16.8005 19.8324 17.1886 19.6655 17.6321Z" fill="white"/>
</g>
</svg>
